<?xml version="1.0" standalone="no"?>
<!DOCTYPE svg PUBLIC "-//W3C//DTD SVG 20010904//EN"
 "http://www.w3.org/TR/2001/REC-SVG-20010904/DTD/svg10.dtd">
<svg version="1.0" xmlns="http://www.w3.org/2000/svg"
 width="620.000000pt" height="349.000000pt" viewBox="0 0 620.000000 349.000000"
 preserveAspectRatio="xMidYMid meet">

<g transform="translate(0.000000,349.000000) scale(0.100000,-0.100000)"
fill="#000000" stroke="none">
<path d="M2925 3010 c-98 -26 -138 -44 -231 -106 -137 -90 -234 -216 -290
-374 -22 -61 -27 -99 -31 -201 -6 -149 13 -244 74 -368 47 -96 168 -222 260
-269 177 -93 395 -95 581 -6 151 72 294 260 309 405 17 163 -106 301 -267 301
-96 0 -150 -32 -242 -144 -98 -120 -289 -125 -389 -10 -53 61 -72 115 -67 193
7 89 42 160 114 232 189 188 515 198 750 24 219 -161 301 -463 197 -726 -47
-120 -115 -208 -233 -304 l-35 -29 50 28 c162 88 281 234 345 424 31 93 38
261 16 366 -22 101 -92 246 -155 322 -92 111 -240 203 -387 242 -103 26 -269
27 -369 0z"/>
<path d="M2528 1218 c-3 -20 -8 -22 -50 -19 -43 2 -48 0 -48 -18 0 -16 6 -21
24 -21 27 0 42 -15 26 -25 -22 -13 -10 -63 20 -88 47 -40 40 -57 -25 -57 -48
0 -55 -2 -55 -20 0 -19 7 -20 135 -20 113 0 137 3 142 15 8 22 4 24 -60 26
-47 2 -57 5 -57 20 0 10 9 21 20 24 29 9 43 42 36 86 -6 37 -5 39 19 39 18 0
25 5 25 20 0 17 -7 20 -50 20 -43 0 -50 3 -50 20 0 30 -47 28 -52 -2z m66
-100 c15 -24 -3 -52 -37 -56 -33 -4 -53 28 -37 59 14 25 58 23 74 -3z"/>
<path d="M2730 1085 l0 -145 25 0 c24 0 25 3 25 60 0 57 1 60 25 60 20 0 25 5
25 25 0 20 -5 25 -25 25 -24 0 -25 3 -25 60 0 57 -1 60 -25 60 l-25 0 0 -145z"/>
<path d="M3230 1206 c0 -23 -4 -26 -35 -26 -28 0 -35 -4 -35 -20 0 -16 7 -20
36 -20 31 0 35 -3 32 -22 -2 -17 -10 -22 -33 -23 -44 0 -47 -33 -3 -37 25 -2
34 -8 36 -25 3 -17 10 -23 28 -23 l25 0 -3 108 c-3 102 -4 107 -25 110 -19 3
-23 -1 -23 -22z"/>
<path d="M2910 1201 c0 -18 8 -20 78 -23 l77 -3 3 -78 c3 -74 4 -78 25 -75 21
3 22 8 22 98 l0 95 -102 3 c-97 3 -103 2 -103 -17z"/>
<path d="M3440 1120 l0 -100 162 2 162 3 0 95 c1 91 0 95 -21 98 -19 3 -23 -1
-23 -22 l0 -26 -115 0 -115 0 0 25 c0 20 -5 25 -25 25 l-25 0 0 -100z m275
-25 l0 -30 -112 -3 -113 -3 0 36 0 36 113 -3 112 -3 0 -30z"/>
<path d="M3104 986 c-123 -54 -49 -221 82 -185 36 11 74 57 74 92 0 34 -31 79
-65 93 -42 17 -51 17 -91 0z m69 -37 c27 -15 37 -28 37 -53 0 -48 -70 -75
-104 -40 -24 23 -20 70 6 88 27 19 33 19 61 5z"/>
<path d="M3410 940 c0 -18 7 -20 85 -20 l85 0 0 -55 c0 -52 1 -55 25 -55 24 0
25 3 25 55 l0 55 85 0 c78 0 85 2 85 20 0 19 -7 20 -195 20 -188 0 -195 -1
-195 -20z"/>
<path d="M2450 870 l0 -50 171 0 c157 0 170 1 167 18 -3 15 -19 17 -148 19
l-145 2 -3 31 c-2 22 -8 30 -23 30 -16 0 -19 -7 -19 -50z"/>
<path d="M1820 520 c0 -94 18 -108 22 -17 l3 62 21 -60 c11 -33 27 -60 34 -60
7 0 20 23 29 52 23 74 31 75 31 5 0 -35 4 -62 10 -62 6 0 10 33 10 80 0 73 -2
80 -20 80 -16 0 -23 -12 -37 -60 -9 -33 -20 -60 -24 -60 -4 0 -16 27 -26 60
-13 44 -22 60 -35 60 -16 0 -18 -10 -18 -80z"/>
<path d="M2010 590 c0 -5 7 -10 15 -10 8 0 15 5 15 10 0 6 -7 10 -15 10 -8 0
-15 -4 -15 -10z"/>
<path d="M2215 590 c-3 -5 1 -10 9 -10 9 0 16 5 16 10 0 6 -4 10 -9 10 -6 0
-13 -4 -16 -10z"/>
<path d="M2897 570 c-9 -17 -11 -32 -6 -36 5 -3 9 -25 9 -50 0 -24 5 -44 10
-44 6 0 10 20 10 45 0 31 5 47 18 54 16 10 16 10 0 11 -10 0 -18 5 -18 11 0 7
8 18 18 25 16 12 15 13 -5 14 -14 0 -27 -10 -36 -30z"/>
<path d="M3048 520 l-3 -80 53 0 c28 0 52 5 52 10 0 6 -18 10 -40 10 -36 0
-40 3 -40 25 0 23 4 25 40 25 22 0 40 5 40 10 0 6 -18 10 -40 10 -36 0 -40 3
-40 25 0 23 4 25 40 25 22 0 40 5 40 10 0 6 -22 10 -49 10 l-49 0 -4 -80z"/>
<path d="M3440 590 c0 -5 7 -10 15 -10 8 0 15 5 15 10 0 6 -7 10 -15 10 -8 0
-15 -4 -15 -10z"/>
<path d="M2394 566 c-6 -14 -8 -28 -3 -33 4 -4 9 -26 11 -48 3 -34 7 -40 28
-43 23 -2 24 -1 8 11 -11 9 -18 28 -18 50 0 25 5 37 18 40 16 4 16 5 0 6 -11
1 -18 9 -18 21 0 27 -13 25 -26 -4z"/>
<path d="M4350 570 c0 -11 -5 -20 -12 -20 -9 0 -9 -3 0 -12 7 -7 12 -24 12
-39 0 -40 10 -59 31 -59 23 0 25 15 4 24 -21 8 -20 65 1 73 15 5 15 7 0 15 -9
5 -16 16 -16 23 0 8 -4 15 -10 15 -5 0 -10 -9 -10 -20z"/>
<path d="M2108 552 c-27 -3 -28 -6 -28 -58 0 -30 5 -54 10 -54 6 0 10 17 10
39 0 22 6 44 15 51 23 19 45 -5 45 -51 0 -22 5 -39 11 -39 6 0 9 19 7 46 -3
53 -25 73 -70 66z"/>
<path d="M2292 544 c-30 -21 -28 -32 13 -51 19 -9 35 -21 35 -25 0 -16 -30
-20 -45 -8 -18 15 -34 5 -18 -11 6 -6 26 -9 44 -7 27 2 35 8 37 26 3 18 -3 25
-27 33 -43 15 -42 43 2 34 30 -6 31 -5 13 10 -24 19 -26 19 -54 -1z"/>
<path d="M2516 551 c-3 -5 -15 -7 -25 -4 -17 4 -19 -1 -19 -51 1 -37 5 -55 12
-53 6 2 11 18 11 36 0 22 7 38 24 50 14 11 20 21 13 25 -6 3 -13 2 -16 -3z"/>
<path d="M2782 549 c-35 -13 -48 -53 -28 -84 31 -48 106 -27 106 29 0 47 -34
71 -78 55z m46 -21 c30 -30 -2 -93 -36 -72 -31 20 -37 41 -18 63 22 24 37 26
54 9z"/>
<path d="M3225 550 c-3 -4 -14 -6 -25 -3 -18 5 -20 0 -20 -51 0 -38 4 -56 13
-56 7 0 12 15 12 40 1 44 16 66 39 57 11 -5 16 -20 16 -53 0 -31 4 -44 12 -42
11 4 13 82 2 99 -6 11 -44 18 -49 9z"/>
<path d="M3620 553 c-39 -14 -53 -69 -24 -97 34 -35 104 -8 104 40 0 39 -44
70 -80 57z m44 -29 c9 -8 16 -22 16 -29 0 -15 -27 -45 -40 -45 -13 0 -40 30
-40 45 0 15 27 45 40 45 5 0 16 -7 24 -16z"/>
<path d="M3770 550 c-7 -4 -19 -6 -27 -3 -10 4 -13 -8 -13 -51 0 -31 5 -56 10
-56 6 0 10 17 10 39 0 22 6 44 15 51 23 19 45 -5 45 -51 0 -22 5 -39 10 -39
11 0 13 80 2 96 -11 16 -37 23 -52 14z"/>
<path d="M3893 553 c-21 -4 -23 -10 -23 -59 0 -30 5 -54 10 -54 6 0 10 17 10
39 0 39 20 68 40 56 5 -3 10 -26 10 -51 0 -24 5 -44 10 -44 6 0 10 17 10 39 0
23 6 44 15 51 23 19 38 -1 38 -49 0 -23 4 -41 8 -41 9 0 12 8 12 35 0 50 -5
65 -23 75 -14 8 -25 7 -40 -2 -15 -10 -22 -10 -32 0 -6 6 -14 11 -17 11 -4 -1
-16 -4 -28 -6z"/>
<path d="M4085 536 c-29 -29 -31 -43 -9 -74 16 -24 77 -31 90 -11 4 8 0 9 -15
4 -28 -8 -61 3 -61 21 0 10 13 14 45 14 47 0 56 12 33 42 -24 30 -56 31 -83 4z
m64 -9 c14 -18 4 -27 -31 -27 -43 0 -35 36 8 39 6 1 17 -5 23 -12z"/>
<path d="M4251 551 c-8 -5 -20 -7 -28 -4 -10 4 -13 -8 -13 -51 0 -31 5 -56 10
-56 6 0 10 17 10 39 0 22 6 44 15 51 23 19 45 -5 45 -51 0 -22 5 -39 11 -39 6
0 9 19 7 46 -3 51 -30 81 -57 65z"/>
<path d="M2020 495 c0 -30 5 -55 10 -55 6 0 10 25 10 55 0 30 -4 55 -10 55 -5
0 -10 -25 -10 -55z"/>
<path d="M2220 495 c0 -30 5 -55 10 -55 6 0 10 25 10 55 0 30 -4 55 -10 55 -5
0 -10 -25 -10 -55z"/>
<path d="M2560 541 c0 -5 9 -30 20 -56 15 -36 17 -51 9 -67 -11 -21 -4 -38 10
-22 8 9 61 139 61 149 0 3 -4 5 -9 5 -5 0 -15 -16 -22 -35 -7 -19 -16 -35 -20
-35 -4 0 -13 16 -19 35 -10 32 -30 49 -30 26z"/>
<path d="M3313 537 c3 -8 11 -34 18 -56 18 -61 46 -53 70 17 12 35 14 52 7 50
-7 -3 -18 -23 -26 -47 -16 -47 -26 -44 -39 8 -5 19 -15 37 -23 39 -8 3 -11 -1
-7 -11z"/>
<path d="M3440 494 c0 -38 4 -54 12 -52 16 6 18 108 1 108 -9 0 -13 -17 -13
-56z"/>
<path d="M3500 494 c0 -38 4 -54 13 -54 9 0 14 14 15 37 1 26 8 43 24 54 22
17 22 17 -15 17 l-37 0 0 -54z"/>
</g>
</svg>
