<?xml version="1.0" encoding="utf-8"?>
<!-- Generator: Adobe Illustrator 22.0.1, SVG Export Plug-In . SVG Version: 6.00 Build 0)  -->
<svg version="1.1" id="레이어_1" xmlns="http://www.w3.org/2000/svg" xmlns:xlink="http://www.w3.org/1999/xlink" x="0px"
	 y="0px" viewBox="0 0 595.3 841.9" style="enable-background:new 0 0 595.3 841.9;" xml:space="preserve">
<style type="text/css">
	.st0{fill:#0A75B5;}
	.st1{fill:#036AAF;}
	.st2{clip-path:url(#SVGID_2_);}
	.st3{fill:#3EAF49;}
	.st4{fill:#4CB134;}
</style>
<path d="M961,2049.9c2.2-1,4.4-2.7,6.8-2.9c5.9-0.5,10.6-2.7,14.1-7.4c0.2-0.3,0.4-0.5,0.6-0.8c4.7-5.7,9.8-10.8,18.2-8.2
	c7.5,2.3,13.7,10.9,14.4,19.3C997,2049.9,979,2049.9,961,2049.9z"/>
<path d="M736,2049.9c12.5-8.5,29.1-8.5,42,0C764,2049.9,750,2049.9,736,2049.9z"/>
<g>
	<g>
		<path class="st0" d="M62.8,607.7l14.1-27.3h0l43.8-86.3l18.6,13.4l-16.7-53.5l-54,16.3l19.1,6.2l-55,104c0,0-2.9,4.8,2.2,13.9
			l17.9,29c0,0,4.6,7.3,8.9,9.9C51.5,626.6,62.8,607.7,62.8,607.7z"/>
		<path class="st0" d="M76.7,594.7c-2.4,4.2-6.3,9.6-9.6,16.6c-1.9,4.1-3.1,7.5-3.8,10.6c-0.2,1.3-1.1,8.4,5.4,11.3
			c0.6,0.1,1.3,0.1,2,0.1c12.3,0,119.9,0,119.9,0v-37L76.7,594.7z"/>
	</g>
</g>
<g>
	<g>
		<path class="st0" d="M524.9,597.4l-30.7-0.2l0,0l-96.7-0.1l3.5-22.7l-40.2,39.1l38.9,40.8l-3.1-19.9l117.6,2.1
			c0,0,5.5,0.4,11.5-8.2l17.7-29.1c0,0,4.4-7.4,4.8-12.4C546.9,599,524.9,597.4,524.9,597.4z"/>
		<path class="st0" d="M507,590.9c4.8,0.3,11.4,1.2,19.1,1c4.6-0.1,8.1-0.6,11.2-1.4c1.2-0.4,8-2.8,7.6-9.9
			c-0.2-0.6-0.5-1.2-0.8-1.9c-5.5-10.9-54.2-107-54.2-107l-33,16.7L507,590.9z"/>
	</g>
</g>
<g>
	<g>
		<path class="st0" d="M272.4,175.8l15.6,26.4l0,0l49.8,82.9l-21.2,8.7l54.2,14.3l15-54.4l-15.4,12.9l-58.8-101.9
			c0,0-2.5-5-12.9-5.6l-34.1-0.2c0,0-8.6,0-13.1,2.3C262.5,156.1,272.4,175.8,272.4,175.8z"/>
		<path class="st0" d="M276,194.5c-2.2-4.3-4.8-10.4-9-16.9c-2.5-3.8-4.7-6.7-7-8.8c-1-0.9-6.5-5.4-12.4-1.4c-0.4,0.5-0.8,1-1.2,1.7
			c-6.5,10.4-63.8,101.5-63.8,101.5l31.4,19.7L276,194.5z"/>
	</g>
</g>
<g>
	<path class="st1" d="M433.9,474.4l-71.5-63.7l52.4-49.8l-9.7-24.3h-90.5l5.7-6.4l-19.6-17.5l-32.6,36.7v-20.7H161.1v87.9h45.6
		v112.3l-11.5,2.4l1.5-86.6l-26.1,1.2l0.6,90l-16.4,1.6l-1.6,30.4l148.1-25.6v20.8h104.8v-78.6l10.4,9.2L433.9,474.4z M379.5,360.5
		l-36.7,32.8l-36.9-32.8H379.5z M274.6,381.5l6.9-7.7l43.6,38.8l-31.4,33.9v-15.4h-56v-14.3h30.2v-41.2L274.6,381.5z M188.7,391.9
		v-39.4h51.1v39.4H188.7z M237.7,528.6v-39.4v-25.2v-5.5h44.7l-11.7,12.6l19.2,17.8l11.5-12.4v39.3L237.7,528.6z M378.6,539.6h-48.9
		V489h48.9V539.6z M311.3,465.8l33.2-35.9l39.9,35.5L311.3,465.8z"/>
	<g>
		<defs>
			<path id="SVGID_1_" d="M433.9,474.4l-71.5-63.7l52.4-49.8l-9.7-24.3h-90.5l5.7-6.4l-19.6-17.5l-32.6,36.7v-20.7H161.1v87.9h45.6
				v112.3l-11.5,2.4l1.5-86.6l-29.2,1.2l0.6,90l-13.3,1.6l-1.6,30.4l148.1-25.6v20.8h104.8v-78.6l10.4,9.2L433.9,474.4z
				 M379.5,360.5l-36.7,32.8l-36.9-32.8H379.5z M274.6,381.5l6.9-7.7l43.6,38.8l-31.4,33.9v-15.4h-56v-14.3h30.2v-41.2L274.6,381.5z
				 M188.7,391.9v-39.4h51.1v39.4H188.7z M237.7,528.6v-39.4v-25.2v-5.5h44.7l-11.7,12.6l19.2,17.8l11.5-12.4v39.3L237.7,528.6z
				 M378.6,539.6h-48.9V489h48.9V539.6z M311.3,465.8l33.2-35.9l39.9,35.5L311.3,465.8z"/>
		</defs>
		<clipPath id="SVGID_2_">
			<use xlink:href="#SVGID_1_"  style="overflow:visible;"/>
		</clipPath>
		<g class="st2">
			<path class="st3" d="M241.2,739.5c0.2-2,0.4-4,0.7-6.1c1.4-9.5-1.6-16.9-10.2-21.9c-6.5-3.7-9.7-9.5-9.6-17.1
				c0-0.3-0.1-0.5,0-0.8c0.7-12.3-5.6-19.2-16.7-23.3c-6.3-2.3-12.2-5.7-17.8-9.3c-3.3-2.1-6.1-5.4-8.4-8.7c-2.9-4.2-3-9,0.2-13.2
				c3.7-4.8,3.8-9.6,1.5-15c-3-7.1-1.8-11.1,3.4-14.3c6.1-3.8,13.5-3.2,17.7,1.9c2.4,2.9,4.2,6.3,6,9.7c3.3,6.1,7.7,11,13.9,14.3
				c6.9,3.7,12.3,3.2,18.3-1.8c2.6-2.2,5-4.7,7.7-6.9c7.4-6.1,15.8-9.2,25.4-8.3c6.4,0.6,10.6,3.9,12.3,10.2c1,3.8,1.4,7.7,2.2,11.6
				c3,14,15.3,21.9,29.3,18.3c5.5-1.4,10.7-4,16-6c9.3-3.5,18.7-7,28.9-5.1c13.1,2.5,22.3,10.3,27.5,22.4c3.7,8.6,0.7,16.9-7.4,22.1
				c-2.3,1.5-4.9,2.8-7.4,3.9c-5.8,2.5-9.8,6.7-11.9,12.7c-0.8,2.1-1.7,4.2-2.8,6.3c-5.6,10.8-14.1,14.5-25.7,10.9
				c-7.7-2.4-15.3-3.9-23.1-1.1c-8.7,3.1-15.8,8.5-22.4,14.7C272.8,739.5,257,739.5,241.2,739.5z"/>
			<path class="st4" d="M436.6,599.7c-13.7-3.2-27.3-4.8-40.6,1.6c-4.4,2.1-9,3.8-13.6,5.2c-12.6,3.6-24.1-0.8-31-11.6
				c-0.9-1.4-1.9-2.9-2.3-4.4c-2.1-9.8-8.2-16.2-17.3-20.9c-3.6-1.9-5.8-4.5-6.7-7.7c-0.8-2.8,5.1-5.3,6-8.5c1.5-5-1.2-9,3.5-10.6
				c1.6-0.5,3.3-0.8,5.2-0.9c3.1-0.1,10.3-5.2,13.4-5c7.3,0.4,6.3,3.6,5.4-3.3c-0.5-3.3-1.1-6.6-1.9-9.8c-1-4.5-2.2-9.1-3-13.7
				c-1.1-6.3,4-16.3,4.4-22.7c0.4-5.9-4.9-7.1-2.7-10.8c2-3.4,11.3-0.8,15-2.6c3.9-1.9,2.4-8.2,8.4-8.6c4.5-0.3-6.1-26.8-1.6-27
				c9.3-0.4,17.3-30.2,23.7-36.7c4.6-4.6,23.8,43.2,28.3,38.6c2.3-2.3,4.9-4.2,7.4-6.3C436.6,489.2,436.6,544.5,436.6,599.7z"/>
			<path class="st3" d="M432.2,229.3c-5.5-2.2-11.1-4.2-16.5-6.6c-3.6-1.6-6.8-3.9-10.3-5.7c-5.6-2.9-11.4-3.1-17.3-0.8
				c-3.1,1.2-6.2,2.4-9.4,3.2c-6.4,1.7-11.7-0.4-15.2-5.7c-3.4-5.2-3.3-10.1,1.4-15.3c4.8-5.3,7.2-11,7.2-18.2
				c0-6.1,5-10.3,12.8-11.2c5-0.6,10.1-0.6,15.2-0.7c7-0.2,12.3-3.3,15.2-9.6c2-4.5,3.4-9.3,4.7-14c0.3-1.1-0.4-3-1.3-3.9
				c-6.5-6.2-14.2-10.1-23.4-11.5c-0.9,12.4-9.2,19.3-18.7,24.7c-9.8,5.6-16.4,13.1-19.4,24.2c-1.2,4.5-3.9,8.8-6.8,12.6
				c-5.2,6.8-12.3,8.8-20.4,5.8c-4.9-1.8-9.6-4-14.4-5.9c-6.2-2.5-12.2-2.9-18.1,1.3c-3.7,2.6-9.3,0.8-11.8-4
				c-1.4-2.6-1.8-5.8-2.4-8.7c-0.7-3-0.7-6.1-1.7-8.9c-2.5-7.2-9.1-9.5-15.6-5.7c-1.8,1.1-3.4,2.6-5,4.1c-1.5,1.3-2.9,2.9-4.5,4
				c-2.7,1.9-5.7,2.5-8.6,0.6c-2.9-1.9-2.6-5-1.3-7.6c2.6-5.2,5.6-10.2,8.7-15.1c3-4.7,6.5-9.2,6.8-15.1c0.2-2.4-0.2-4.8-0.2-7.2
				c56.8,0,113.5,0,170.3,0C432.2,162.1,432.2,195.7,432.2,229.3z"/>
			<path class="st4" d="M120.5,374.2c1.2-1.1,2.4-2.3,3.7-3.3c2.4-1.8,4.7-3.9,7.4-5.3c8.2-4.2,16-0.9,17.8,8.2
				c1.2,5.9,1.7,12.2,1.4,18.2c-0.5,10.3,3.1,18.6,10,25.8c1.8,1.8,3.3,3.9,5,5.7c4.7,5.1,7.1,11.1,7.1,18c0,1.7,0.2,3.3,0.2,5
				c0.1,7.5,3.2,13.5,9.3,17.9c3.3,2.4,6.8,4.6,9.7,7.3c5.2,4.7,8.7,10.4,7,17.9c-1.1,4.9-4.1,8.1-9.1,9.2c-3.1,0.7-6.3,0.9-9.4,1.6
				c-6,1.4-8.8,5.2-8.3,11.4c0.2,2,0.4,4.1,0.9,6c2.9,10.6,0.6,20.7-2.8,30.7c-3.2,9.4-13.4,15-22.5,14.2c-13-1.1-22,4.2-28.8,14.7
				c-0.5,0.8-1.3,1.5-2,2.3C117.4,511.2,120.5,442.7,120.5,374.2z"/>
			<path class="st3" d="M130.5,583.7c8.4-3.6,16.1-1.9,23.5,2.8c8.8,5.6,12.1,13,9.6,23.2c-2.1,8.4-5.1,16.5-7.3,24.8
				c-2.6,9.8-0.3,18.5,7.6,25.1c4.9,4.2,10.2,8,15.4,11.8c8.4,6,14.2,14.1,19,23c1,1.8,1.6,3.7,2.1,5.7c1.4,5.9-2.2,10.5-8.3,10.3
				c-2.6-0.1-5.3-0.8-7.8-1.6c-6.3-2-11.4-0.4-15.1,4.9c-4.7,6.9-9.2,13.9-14.2,21.6c5,1.5,9.3,2.8,13.6,4.1c-12.7,0-25.5,0-38.2,0
				C130.5,687.5,130.5,635.6,130.5,583.7z"/>
			<path class="st3" d="M432.2,298c-15.3,16.1-33.6,14.9-52.6,8.7c-8.1-2.7-15.2-7.2-20-14.5c-4-5.9-5.9-12.4-3.7-19.5
				c2.6-8.2,9.9-11.7,20.1-9.7c1.2,0.2,2.5,0.5,3.7,1c12,4.8,23.1,2.2,34-3.6c6.1-3.3,12.3-6.5,18.5-9.7
				C432.2,266.5,432.2,282.2,432.2,298z"/>
			<path class="st3" d="M229,128.5c0.7,9.6-2.4,18-8.5,25.3c-1,1.2-2,2.3-3.2,3.2c-5,4-9.7,2.4-10.8-4c-0.7-4.4-0.5-8.9-1.1-13.2
				c-0.9-6.3-5.3-9.1-11.6-7.7c-6.8,1.6-11.8,5.7-15.8,11.2c-1.3,1.7-2.4,3.6-3.7,5.3c-4.3,6.2-10.2,8.3-17.6,7
				c-3.6-0.6-7.3-0.9-11-0.7c-8.1,0.5-13.4,5.9-14.7,14.1c-0.1,0.5-0.4,0.9-0.7,1.3c0-14,0-27.9,0-42
				C163.3,128.5,196.2,128.5,229,128.5z"/>
			<path class="st3" d="M130.5,213.3c1.8,6.7,3.7,13.4,5.3,20.1c1,4.4,1.5,9,2.4,13.5c1.9,9.8,6.8,17.9,14,24.8
				c5.2,5,10.1,10.4,14.3,16.3c5.9,8.1,5.1,17.4,1.9,26.3c-2.1,5.9-6.8,6.7-11.3,2.5c-9.9-9.4-14.6-9.9-26.5-2.7
				C130.5,280.5,130.5,246.9,130.5,213.3z"/>
			<path class="st3" d="M432.2,679.9c-7.6,1.7-14-3-14.5-10.9c-0.2-3.9,0-7.9,0.2-11.8c0.4-8.3-2.5-14.4-10.1-18.4
				c-3.9-2-7.5-4.8-10.7-7.8c-4.5-4.3-3.8-8.4,1.5-11.8c5.6-3.5,11.6-3.7,17.5-1.4c5.4,2.1,10.6,4.7,16,7.1
				C432.2,643.2,432.2,661.6,432.2,679.9z"/>
			<path class="st3" d="M394.8,739.5c4-1.2,8.1-2.5,12.1-3.7c-5.5-17.3,7-37.5,25.3-36c0,13.2,0,26.5,0,39.7
				C419.7,739.5,407.2,739.5,394.8,739.5z"/>
			<path class="st4" d="M132.1,311.3c-1.1-7.3,0-13.7,4-19.6c3.2-4.7,7.8-7.4,13.4-7.6c2.6-0.1,3.8-1.2,5.1-3
				c4.8-6.6,11.8-10.2,18.8-13.8c0.8-0.4,1.9-0.4,2.8-0.5c0.2,0.5,0.5,0.7,0.5,0.9c-3,9.3,3.6,14.1,9.2,19.2
				c1.3,1.2,2.7,2.3,4.2,3.7c-0.9,1.1-1.7,2-2.5,3c5,8.7,15.6,11.9,26,7.8c4.9-2,9.7-3.6,15.1-3c15.5,1.7,25.1,18.3,16.8,33
				c-0.9,1.7-2.4,3.1-4,4.1c-10.8,7.1-15.9,16.4-12.9,29.3c2.5,10.7,3.7,21.6,1.7,32.5c-1,5.2-4.3,10.4-7.3,12.7
				c-0.4,0.3-0.8,0.3-1.2,0.2c-5-1-10.9-3-15.3-6.5c-7.3-5.7-15.5-7.8-24.6-6.9c-7.6,0.8-15.3-0.2-22.3-3.3
				c-19.1-8.6-37.2-6.9-54.1,5.6c-4.3,3.2-8.8,6-14.6,5.7c-7-0.3-11-5.2-12.7-13.4c-0.1-0.5,0-1.2,0.3-1.6c3.1-4.9,7.7-9,12.4-12.5
				c12-9,13.3-13.9,5.7-26.9c-4.8-8.2-7.7-16.9-7.4-26.4c0.2-6.5,3.4-13.8,8.7-15.1c0.3-0.1,0.6-0.1,0.9-0.1
				c5.7,0.4,10.9,2.6,16.2,4.5C120.8,315.5,126.5,314.5,132.1,311.3z"/>
			<path class="st4" d="M329.7,298.2c-1.1-7.3,0-13.7,4-19.6c3.2-4.7,7.8-7.4,13.4-7.6c2.6-0.1,3.8-1.2,5.1-3
				c4.8-6.6,11.8-10.2,18.8-13.8c0.8-0.4,1.9-0.4,2.8-0.5c0.2,0.5,0.5,0.7,0.5,0.9c-3,9.3,3.6,14.1,9.2,19.2
				c1.3,1.2,2.7,2.3,4.2,3.7c-0.9,1.1-1.7,2-2.5,3c5,8.7,15.6,11.9,26,7.8c4.9-2,9.7-3.6,15.1-3c15.5,1.7,25.1,18.3,16.8,33
				c-0.9,1.7-2.4,3.1-4,4.1c-10.8,7.1-15.9,16.4-12.9,29.3c2.5,10.7,3.7,21.6,1.7,32.5c-1,5.2-4.3,10.4-7.3,12.7
				c-0.4,0.3-0.8,0.3-1.2,0.2c-5-1-10.9-3-15.3-6.5c-7.3-5.7-15.5-7.8-24.6-6.9c-7.6,0.8-15.3-0.2-22.3-3.3
				c-19.1-8.6-21.6-13.9-38.5-1.4c-4.3,3.2-13.5-8-19.2-8.2c-7-0.3-6.4,1.1-12.1-5c-4.9-5.2-8.9-12.4-5.9-18.3
				c2.6-5.2,0.3-9.2,5-12.7c-7.2-15.7-16.2-17.5-23.8-30.5c-4.8-8.2,23.7,16.3,24.1,6.7c0.2-6.5,3.4-13.8,8.7-15.1
				c0.3-0.1,0.6-0.1,0.9-0.1c5.7,0.4,10.9,2.6,16.2,4.5C318.5,302.4,324.1,301.5,329.7,298.2z"/>
			<path class="st4" d="M197.4,527.7c1.6-5.1,2.6-10.6,5-15.4c4.5-8.7,24-0.9,32.2-6.5c13.7-9.5,18.5-32.2,19.2-48.1
				c0.8-16.3-21.9-29-7.5-37.3c14.2-8.3,17.9,17.4,34.3,2c8.1-6.3,20.4-30,31.4-5c9.7,22,15.5,2,12.9,21.2
				c-2.3,16.8,1.2,30-13.6,38.3c-2.7,1.5-5.4,2.9-7.8,4.7c-5.7,4.3-13.2,7.4-10,13.8c0.8,1.6-0.9,3,0,4.5c3,4.8,1.9,6.5-1.6,11.2
				c-2.4,3.2,7.1,11.5,8,15.6c1.6,7.6-1.9,14.7-9.7,18.4c-6.4,2.9-13.5,4.3-20.2,6.5c-3.9,1.2-7.8,2.3-11.4,4.1
				c-4.5,2.2-6.6,6.1-6.6,11.2c0,2.5-0.1,5.1-0.6,7.6c-0.7,3.8-2.6,4.9-6.3,4c-5.6-1.4-9.8-4.8-12.7-9.7c-2-3.4-3.6-7-5.2-10.6
				c-3-6.6-7.8-11.2-15.1-12.1c-10.4-1.3-14-7.4-13.8-18C198,527.9,197.7,527.8,197.4,527.7z"/>
			<path class="st3" d="M205.8,197.7c1.4-2.7,2.8-5.5,4.2-8.2c1.5-3.2,2.7-6.6,4.6-9.5c1.7-2.7,4.6-4.2,8-3.1
				c3.5,1.1,5.1,4.2,4.7,7.5c-0.4,3.4-1.7,6.8-3.3,9.8c-1.8,3.3-4.6,6.1-6.7,9.3c-1.8,2.7-2.8,5.9-0.9,9c1.8,2.9,5,2.8,7.9,2.8
				c6.4-0.1,12.1-2.4,17.2-6.4c2-1.6,3.9-3.3,6.1-4.5c3.7-2,6.3-0.9,7.9,3c3.1,7.8,4.8,8.8,13.2,9.2c5.3,0.2,10.8,0.2,15.8,1.6
				c10.5,2.9,16.4,12.5,13.9,21.7c-0.6,2.4-1.9,4.8-3.6,6.6c-4,4.4-5.9,9.4-6.3,15.2c-0.4,6.5-3.8,10.6-10.1,12.2
				c-2.9,0.8-5.9,1.6-8.9,2.1c-6.6,1.2-11.3,4.8-14.5,10.6c-1.7,3.1-3.5,6.2-5.8,8.9c-5.5,6.6-11.6,6.7-17.6,0.6c-1-1-2-2-2.9-3
				c-4.1-5-9.3-6.1-15.4-4.6c-2.7,0.7-5.4,1.3-8.2,1.6c-5.2,0.6-8.7-1.1-10.5-5.7c-2.2-5.7-6.2-8.2-11.9-10
				c-9.9-3.1-16.1-10.7-20.3-19.9c-0.9-1.9-2.2-3.7-2.9-5.7c-1.5-4.5-3.9-9-4-13.6c-0.4-19.1-0.3-38.2-0.2-57.2
				c0.1-14.1,10.4-23.9,24.7-23.9c14.1,0.1,24.3,10.2,24.4,24.2c0,6.3,0,12.7,0,19C205,197.4,205.4,197.5,205.8,197.7z"/>
			<path class="st3" d="M337.7,215.2c5.7,1.5,11.5,2.7,17,4.8c2.6,0.9,5,3.2,6.7,5.4c5.8,7.5,2.6,16.2-6.6,18.4
				c-3.5,0.8-7,1.4-10.4,2.4c-3.7,1-5.9,3.5-7.1,7.3c-2.6,8.2-16.3,14.9-24.4,12.1c-4.5-1.5-6.5-5-4.4-9.2c2.3-4.9,2.3-9.5,1.6-14.7
				c-1.8-12.1,9.8-24.4,23.1-25.3c1.4-0.1,2.8,0,4.2,0C337.5,215.9,337.6,215.6,337.7,215.2z"/>
			<path class="st3" d="M298.8,597.1c1.3-1.9,2.7-3.7,3.8-5.7c1-1.6,2.3-3.4,2.4-5.1c0.2-8.8,4.5-12.1,12.9-9.4
				c7,2.2,12.6,6.5,17.1,12.2c3.2,4,4.6,8.4,2.5,13.5c-1.8,4.2-0.4,8.2,1,12.2c2.6,7.4-0.3,14-7.3,17.5c-4.2,2.1-6.8,0.9-7.9-3.7
				c-0.5-2.2-0.4-4.6-1-6.8c-2.1-7.6-6.2-13.5-14.3-15.9C303.8,604.7,299.6,603.2,298.8,597.1z"/>
		</g>
	</g>
</g>
</svg>
