<?xml version="1.0" standalone="no"?>
<!DOCTYPE svg PUBLIC "-//W3C//DTD SVG 20010904//EN"
 "http://www.w3.org/TR/2001/REC-SVG-20010904/DTD/svg10.dtd">
<svg version="1.0" xmlns="http://www.w3.org/2000/svg"
 width="300.000000pt" height="141.000000pt" viewBox="0 0 300.000000 141.000000"
 preserveAspectRatio="xMidYMid meet">
<metadata>
Created by potrace 1.10, written by Peter Selinger 2001-2011
</metadata>
<g transform="translate(0.000000,141.000000) scale(0.100000,-0.100000)"
fill="#000000" stroke="none">
<path d="M435 1056 c-30 -30 -60 -88 -75 -146 -6 -25 -13 -53 -16 -62 -4 -12
-15 -18 -34 -18 -26 0 -29 -5 -40 -51 -14 -58 -8 -185 10 -218 6 -12 21 -21
34 -21 20 0 24 -9 40 -74 18 -78 61 -157 95 -175 14 -8 325 -11 1009 -11 l989
0 28 27 c131 130 138 603 10 738 l-32 35 -997 0 -997 0 -24 -24z m1160 -62
c-82 -202 -85 -397 -10 -597 l32 -87 -577 0 c-647 0 -586 -7 -628 75 -79 158
-63 525 28 637 l18 23 579 5 c318 3 579 5 580 5 1 -1 -9 -28 -22 -61z m745 36
c-101 -142 -107 -531 -10 -688 l20 -32 -158 0 -158 0 -26 68 c-46 119 -61 190
-61 302 0 112 15 186 60 302 l26 68 161 3 c89 1 162 4 164 5 2 1 -6 -12 -18
-28z m-340 16 c0 -2 -9 -26 -21 -53 -57 -133 -76 -344 -44 -483 18 -74 51
-169 67 -188 9 -10 -24 -12 -173 -10 l-184 3 -28 73 c-79 208 -75 412 13 617
l19 45 176 0 c96 0 175 -2 175 -4z m463 -14 c48 -53 86 -206 87 -347 0 -200
-63 -375 -135 -375 -34 0 -72 51 -97 133 -20 63 -23 93 -23 242 1 152 3 177
24 235 30 87 64 130 100 130 15 0 35 -8 44 -18z m-2128 -342 c0 -104 -2 -120
-16 -120 -20 0 -29 39 -29 126 0 69 13 114 32 114 10 0 13 -29 13 -120z"/>
<path d="M477 773 c-4 -3 -7 -24 -7 -45 0 -39 0 -40 -37 -36 -22 2 -38 -2 -40
-9 -3 -9 8 -13 36 -13 l40 0 3 -47 c4 -66 28 -70 28 -4 l0 51 41 0 c28 0 39 4
36 13 -2 7 -18 11 -40 9 l-37 -4 0 46 c0 43 -7 55 -23 39z"/>
<path d="M2064 691 c-15 -15 6 -21 77 -21 56 0 80 3 77 11 -4 11 -144 20 -154
10z"/>
<path d="M2391 931 c-91 -91 -71 -521 24 -521 53 0 85 101 85 270 0 114 -16
206 -41 236 -25 31 -47 36 -68 15z m52 -45 c9 -19 21 -73 27 -120 24 -180 -36
-406 -79 -298 -44 110 -41 334 5 425 19 35 27 34 47 -7z"/>
</g>
</svg>
