<?xml version="1.0" standalone="no"?>
<!DOCTYPE svg PUBLIC "-//W3C//DTD SVG 20010904//EN"
 "http://www.w3.org/TR/2001/REC-SVG-20010904/DTD/svg10.dtd">
<svg version="1.0" xmlns="http://www.w3.org/2000/svg"
 width="300.000000pt" height="300.000000pt" viewBox="0 0 300.000000 300.000000"
 preserveAspectRatio="xMidYMid meet">
<metadata>
Created by potrace 1.10, written by Peter Selinger 2001-2011
</metadata>
<g transform="translate(0.000000,300.000000) scale(0.100000,-0.100000)"
fill="#000000" stroke="none">
<path d="M870 2681 c-122 -6 -170 -18 -170 -44 0 -7 -9 -18 -20 -25 -11 -7
-20 -22 -20 -35 0 -12 -7 -31 -15 -41 -24 -32 -18 -72 15 -106 25 -26 30 -39
29 -73 -3 -62 -5 -64 -81 -108 -136 -79 -158 -114 -178 -269 -13 -105 -29
-459 -24 -520 2 -25 6 -245 9 -490 6 -512 -1 -478 106 -521 127 -50 327 -79
556 -79 l152 0 -10 -32 c-5 -18 -9 -45 -9 -60 0 -59 95 -87 310 -95 165 -6
248 6 315 46 27 16 30 23 29 64 0 26 1 47 3 47 2 0 19 -7 38 -15 107 -44 396
-32 510 22 30 15 33 20 43 87 6 39 14 132 17 206 4 74 9 149 11 165 10 67 12
447 3 540 -16 166 -54 270 -122 336 -38 36 -41 42 -47 116 -4 43 -8 155 -9
248 -2 94 -4 181 -5 195 -1 14 2 31 8 38 24 33 9 155 -22 167 -9 4 -66 6 -125
6 -83 -1 -113 -5 -124 -17 -22 -22 -26 -124 -5 -147 13 -15 14 -29 3 -115 -6
-53 -14 -133 -17 -177 -6 -97 -23 -243 -31 -270 -3 -11 -23 -38 -45 -60 -21
-22 -50 -64 -65 -93 l-26 -52 -53 112 c-52 111 -53 115 -60 234 -6 118 -6 123
20 177 30 64 32 101 10 157 -9 23 -14 43 -11 47 4 3 2 14 -4 25 -10 18 -19 18
-182 12 -95 -4 -177 -10 -182 -15 -6 -4 -42 9 -80 29 -62 33 -71 41 -79 75 -7
28 -6 43 2 55 47 64 50 74 40 104 -6 16 -17 32 -24 35 -8 3 -14 12 -14 21 0
20 -76 92 -98 93 -118 5 -165 5 -272 0z m269 -63 c2 -5 14 -13 27 -18 28 -11
31 -25 8 -34 -21 -8 -451 -9 -464 -1 -5 3 -7 12 -3 21 4 12 28 15 132 14 225
-2 291 0 291 8 0 4 -93 6 -207 4 -143 -2 -205 0 -198 7 19 20 406 19 414 -1z
m75 -77 c23 -25 13 -59 -22 -74 -28 -11 -396 -20 -465 -10 -28 4 -39 11 -43
28 -3 13 -1 31 4 41 9 16 30 17 233 16 123 -1 233 3 244 8 28 12 30 12 49 -9z
m-244 -106 c80 0 163 5 184 9 36 9 39 8 31 -10 -13 -31 -6 -97 14 -124 10 -14
48 -41 84 -61 90 -50 119 -73 105 -87 -16 -16 1 -90 25 -107 21 -14 22 -23 22
-173 l0 -157 -48 -79 c-27 -44 -60 -94 -72 -111 -13 -16 -40 -65 -60 -107 -35
-72 -37 -86 -42 -195 -5 -110 -3 -129 30 -268 65 -275 71 -378 27 -481 -22
-51 -22 -52 -75 -59 -200 -25 -657 39 -704 99 -7 9 -25 904 -22 1096 2 115 13
300 21 345 5 28 11 71 15 97 7 58 39 92 129 143 95 53 109 72 107 147 -1 34
-6 67 -11 72 -19 19 -10 22 43 17 28 -4 117 -6 197 -6z m1310 -29 c0 -7 -33
-10 -102 -8 -56 1 -99 -1 -95 -5 4 -4 48 -8 98 -9 50 -1 96 -7 102 -13 18 -18
-16 -23 -120 -19 l-97 5 -2 32 -2 32 109 -2 c71 -1 109 -6 109 -13z m4 -81
c10 -28 -22 -38 -109 -33 -57 3 -82 1 -75 -6 5 -5 41 -9 80 -8 l70 1 1 -180
c1 -98 3 -183 4 -189 1 -5 3 -51 4 -100 l1 -91 43 -47 c24 -26 50 -58 58 -72
22 -36 58 -148 64 -200 10 -85 13 -425 4 -555 -15 -237 -30 -420 -35 -437 -16
-53 -352 -80 -477 -39 l-37 13 0 78 0 79 163 -2 c200 -2 293 8 307 33 5 10 12
107 14 216 3 110 9 264 13 344 4 80 7 174 8 210 l0 65 -237 -3 -237 -3 -6 24
c-15 56 54 197 126 257 22 19 41 147 57 395 9 148 7 191 -12 220 -28 43 -11
50 102 47 73 -2 102 -7 106 -17z m-841 -97 c-11 -51 -12 -52 -39 -27 l-25 23
23 13 c34 19 47 16 41 -9z m275 -22 c18 -49 15 -85 -15 -154 -26 -63 -26 -64
-16 -195 l10 -132 86 -175 c98 -198 112 -249 104 -385 -4 -69 -14 -118 -46
-213 -64 -193 -103 -351 -98 -397 2 -22 16 -69 29 -105 14 -36 28 -88 31 -117
6 -50 5 -52 -26 -67 -77 -36 -303 -44 -449 -15 l-60 12 5 49 c4 27 23 86 44
131 34 73 38 91 38 162 0 104 -10 178 -41 300 -44 175 -52 239 -42 344 9 104
30 159 98 261 21 30 57 87 81 125 l43 70 0 161 c1 160 1 161 -27 201 -30 44
-33 66 -12 103 8 14 14 34 15 45 0 19 7 20 118 22 l119 2 11 -33z m162 -724
c0 -34 -16 -42 -26 -14 -9 24 -8 28 8 29 11 1 18 -5 18 -15z m28 -117 c-3 -3
-9 2 -12 12 -6 14 -5 15 5 6 7 -7 10 -15 7 -18z m426 -102 c-3 -54 -10 -131
-15 -171 -6 -41 -9 -165 -7 -277 1 -112 0 -206 -2 -209 -6 -5 -260 -11 -367
-8 l-62 2 4 158 c3 137 7 167 30 232 39 113 47 247 21 343 l-8 27 206 0 206 0
-6 -97z m-484 -489 c0 -56 -4 -93 -9 -89 -13 7 -24 -71 -20 -134 4 -53 -6 -69
-17 -26 -6 23 0 98 12 154 4 20 3 23 -5 11 -9 -12 -11 -10 -11 11 0 14 4 39
10 55 5 16 14 48 20 72 6 23 13 42 15 42 3 0 5 -43 5 -96z m16 -219 c-15 -15
-16 -14 -16 16 0 31 1 32 16 17 16 -15 16 -18 0 -33z m-13 -128 c3 -47 1 -70
-8 -77 -10 -9 -15 -2 -23 32 -6 24 -15 58 -21 76 -8 28 -8 32 3 23 10 -8 17
-7 26 4 7 9 14 14 16 12 2 -1 5 -33 7 -70z m-591 -37 c-6 -16 -11 -20 -16 -11
-4 6 -2 19 5 27 16 20 21 12 11 -16z"/>
<path d="M1334 2096 c-9 -24 4 -48 23 -44 24 4 24 52 0 56 -9 2 -20 -4 -23
-12z m36 -10 c0 -8 -4 -17 -9 -21 -12 -7 -24 12 -16 25 9 15 25 12 25 -4z"/>
<path d="M577 2079 c-24 -38 -41 -142 -28 -168 19 -36 64 -27 144 28 101 69
102 69 382 91 178 14 184 15 210 34 33 25 8 36 -55 24 -54 -10 -379 -5 -556 8
-78 6 -83 6 -97 -17z m484 -11 c70 0 150 3 176 6 47 6 47 6 18 -7 -17 -8 -108
-19 -217 -26 -212 -14 -263 -25 -340 -78 -52 -36 -117 -65 -129 -57 -11 6 -3
111 11 145 l13 31 170 -7 c93 -4 227 -7 298 -7z"/>
<path d="M2116 2128 c-2 -13 -9 -86 -15 -163 -7 -77 -14 -159 -16 -182 -2 -24
0 -43 5 -43 6 0 10 21 10 48 0 26 5 63 10 83 19 67 47 243 42 261 -6 25 -31
22 -36 -4z m15 -88 l-9 -45 -1 50 c0 28 3 61 7 75 7 25 7 25 10 -5 1 -16 -2
-50 -7 -75z m-14 -87 c-3 -10 -5 -4 -5 12 0 17 2 24 5 18 2 -7 2 -21 0 -30z"/>
<path d="M1976 1553 c-12 -13 -36 -74 -36 -93 0 -28 25 -31 87 -9 68 23 128
60 143 89 10 19 8 20 -88 20 -54 0 -102 -3 -106 -7z m174 -17 c0 -20 -141 -86
-182 -86 -22 0 -22 0 -2 50 l16 40 84 0 c46 0 84 -2 84 -4z"/>
<path d="M1480 2168 c0 -11 207 -10 214 1 3 5 -44 8 -104 8 -61 0 -110 -4
-110 -9z"/>
<path d="M1460 2131 c0 -5 14 -11 31 -15 45 -9 65 -8 54 3 -14 12 -85 22 -85
12z"/>
<path d="M1560 2120 c0 -6 28 -10 64 -10 36 0 68 5 71 10 4 6 -20 10 -64 10
-41 0 -71 -4 -71 -10z"/>
<path d="M1525 2070 c25 -11 102 -11 135 0 17 5 -5 8 -65 8 -59 0 -83 -2 -70
-8z"/>
<path d="M1334 1353 c-23 -55 -28 -132 -15 -236 15 -112 71 -357 82 -357 19 0
22 62 11 195 -9 104 -9 171 -1 256 10 102 9 119 -5 147 -23 45 -53 42 -72 -5z
m58 5 c1 -7 2 -103 2 -213 1 -110 5 -236 10 -280 10 -90 -3 -95 -20 -7 -6 31
-19 91 -28 132 -28 122 -36 275 -18 332 11 34 21 48 34 48 10 0 19 -6 20 -12z"/>
<path d="M1384 686 c-11 -29 1 -61 23 -64 17 -3 24 3 29 22 3 14 4 33 0 41 -7
19 -45 20 -52 1z m36 -27 c0 -20 -4 -29 -12 -27 -18 6 -22 39 -6 49 18 12 18
12 18 -22z"/>
</g>
</svg>
