<?xml version="1.0" standalone="no"?>
<!DOCTYPE svg PUBLIC "-//W3C//DTD SVG 20010904//EN"
 "http://www.w3.org/TR/2001/REC-SVG-20010904/DTD/svg10.dtd">
<svg version="1.0" xmlns="http://www.w3.org/2000/svg"
 width="300.000000pt" height="252.000000pt" viewBox="0 0 300.000000 252.000000"
 preserveAspectRatio="xMidYMid meet">
<metadata>
Created by potrace 1.10, written by Peter Selinger 2001-2011
</metadata>
<g transform="translate(0.000000,252.000000) scale(0.100000,-0.100000)"
fill="#000000" stroke="none">
<path d="M1720 2313 c-169 -25 -290 -84 -290 -140 0 -13 -20 -64 -45 -113
l-45 -90 0 -281 c0 -221 -3 -280 -12 -275 -69 28 -288 92 -388 112 -96 20
-148 25 -221 22 -108 -3 -139 -19 -139 -68 0 -60 141 -176 332 -273 l85 -44
-139 -17 c-163 -20 -297 -56 -353 -94 l-40 -28 -3 -344 c-2 -338 -2 -344 19
-366 129 -137 898 -186 1303 -83 93 24 171 61 186 88 5 11 10 38 10 60 l0 40
58 6 c134 16 238 50 273 91 9 11 37 59 62 108 l47 88 0 628 0 628 -45 90 c-25
49 -45 97 -45 107 0 29 -62 81 -123 103 -89 34 -217 52 -346 51 -64 -1 -127
-3 -141 -6z m378 -29 c171 -35 249 -101 197 -170 -14 -18 -14 -17 -9 12 5 26
1 35 -25 57 -70 58 -198 87 -394 87 -138 0 -252 -18 -323 -51 -60 -29 -78 -51
-70 -91 l6 -33 -20 25 c-26 33 -25 56 5 86 88 88 393 126 633 78z m-55 -39
c252 -38 304 -133 108 -196 -51 -17 -100 -23 -219 -27 -221 -7 -376 23 -432
83 -20 21 -22 28 -12 49 37 82 313 128 555 91z m-488 -194 c219 -82 600 -61
728 41 21 16 40 28 41 27 2 -2 20 -37 41 -78 25 -50 35 -81 31 -97 -9 -34 -94
-79 -201 -106 -80 -20 -115 -23 -310 -23 -194 0 -230 3 -307 22 -103 26 -178
62 -207 98 l-20 27 41 83 42 84 32 -29 c18 -15 58 -37 89 -49z m-60 -204 c115
-40 205 -52 400 -52 227 1 351 24 456 88 l54 33 -3 -610 c-3 -688 5 -627 -85
-672 -53 -27 -179 -59 -275 -69 l-63 -7 2 230 c0 146 -3 237 -10 249 -19 37
-120 121 -206 173 -93 56 -279 146 -362 176 l-53 19 0 263 0 263 38 -30 c20
-16 69 -40 107 -54z m-543 -338 c361 -75 836 -290 976 -442 66 -73 53 -110
-42 -122 -138 -18 -480 63 -753 176 -346 145 -588 318 -533 384 33 40 172 41
352 4z m166 -396 l94 -38 -143 -7 c-238 -11 -430 -44 -530 -92 -40 -19 -51
-21 -60 -10 -56 68 158 146 481 177 19 2 42 5 50 5 8 1 56 -15 108 -35z m266
-96 c213 -67 286 -80 443 -81 l143 -1 0 -297 c0 -282 -1 -299 -19 -317 -45
-45 -157 -81 -341 -108 -160 -24 -607 -24 -765 0 -189 29 -305 65 -353 109
-22 21 -22 23 -22 324 l0 303 36 -24 c217 -147 1123 -163 1394 -25 60 30 45
34 -25 5 -234 -94 -782 -114 -1145 -41 -110 22 -220 60 -220 76 0 27 203 81
375 99 261 29 351 24 499 -22z m949 -439 c-15 -29 -42 -62 -60 -74 -38 -25
-141 -53 -230 -61 l-63 -6 0 57 0 56 48 0 c69 0 220 34 277 62 28 13 52 23 53
21 2 -1 -9 -25 -25 -55z"/>
<path d="M2057 2204 c-5 -9 -37 -127 -37 -138 0 -12 87 -6 138 9 88 27 101 80
26 111 -44 19 -120 29 -127 18z m141 -40 c33 -22 27 -43 -20 -63 -50 -22 -138
-33 -138 -19 0 6 7 34 15 63 l16 52 52 -9 c29 -5 62 -16 75 -24z"/>
<path d="M865 1493 c6 -5 48 -18 95 -27 219 -45 541 -177 743 -304 53 -33 99
-57 101 -53 13 21 -344 211 -518 276 -161 60 -448 133 -421 108z"/>
<path d="M730 1396 c30 -29 258 -161 369 -214 141 -67 341 -134 484 -161 120
-23 141 -25 133 -12 -3 5 -32 12 -63 16 -230 28 -556 156 -817 320 -101 63
-135 80 -106 51z"/>
<path d="M630 561 c0 -210 1 -230 18 -235 39 -12 243 -47 327 -56 233 -26 633
2 808 56 16 5 17 25 17 236 l0 230 -22 -5 c-121 -30 -280 -42 -558 -42 -279 0
-407 10 -562 41 l-28 6 0 -231z m209 182 c237 -31 705 -20 919 23 l32 7 0
-216 0 -216 -52 -10 c-365 -75 -687 -75 -1037 0 l-51 11 0 215 0 216 32 -7
c17 -3 88 -14 157 -23z"/>
</g>
</svg>
