<?xml version="1.0" standalone="no"?>
<!DOCTYPE svg PUBLIC "-//W3C//DTD SVG 20010904//EN"
 "http://www.w3.org/TR/2001/REC-SVG-20010904/DTD/svg10.dtd">
<svg version="1.0" xmlns="http://www.w3.org/2000/svg"
 width="300.000000pt" height="300.000000pt" viewBox="0 0 300.000000 300.000000"
 preserveAspectRatio="xMidYMid meet">
<metadata>
Created by potrace 1.10, written by Peter Selinger 2001-2011
</metadata>
<g transform="translate(0.000000,300.000000) scale(0.100000,-0.100000)"
fill="#000000" stroke="none">
<path d="M1088 2341 c-53 -21 -128 -73 -173 -121 -16 -17 -66 -52 -110 -77
-44 -24 -105 -67 -135 -95 -30 -28 -86 -71 -125 -96 -38 -24 -97 -70 -130
-102 -33 -31 -78 -69 -100 -83 -59 -39 -69 -49 -91 -87 -10 -19 -22 -37 -26
-40 -4 -3 -10 -31 -14 -62 -5 -47 -3 -63 14 -91 l20 -35 -47 -49 c-60 -63 -67
-85 -35 -123 23 -26 23 -29 6 -34 -22 -7 -42 -59 -42 -109 0 -28 7 -44 32 -67
17 -17 43 -33 57 -36 66 -13 261 -99 361 -159 19 -12 64 -34 100 -49 36 -16
138 -64 228 -107 89 -44 190 -87 224 -95 56 -15 68 -14 154 1 52 9 116 25 142
35 76 29 272 139 322 181 50 42 182 130 187 125 2 -2 -1 -16 -8 -32 -13 -36
-3 -149 16 -168 19 -18 419 -30 455 -13 23 11 25 18 25 75 0 52 3 62 17 62 12
0 16 -6 13 -20 -2 -12 4 -40 15 -64 22 -53 34 -56 241 -56 166 0 169 1 194 83
15 52 11 83 -17 113 -28 31 -48 108 -48 183 0 70 40 221 68 253 12 14 12 20 2
33 -17 20 -37 19 -68 -5 l-25 -20 -23 21 c-20 19 -32 21 -119 17 -86 -3 -99
-6 -115 -25 -22 -27 -28 -28 -52 -6 -26 24 -77 25 -108 3 -25 -18 -26 -18 -38
1 -7 11 -29 21 -52 25 -22 4 -40 9 -40 11 0 3 15 23 33 46 36 45 77 113 77
127 0 15 -34 20 -70 10 -41 -12 -49 -6 -26 19 35 38 27 131 -11 131 -20 0 -15
12 17 44 22 22 28 35 24 50 -14 43 -37 65 -82 81 -26 9 -78 29 -117 43 l-70
27 -10 68 c-11 72 -22 87 -64 82 -14 -2 -50 -6 -80 -10 -30 -3 -62 -10 -71
-15 -14 -7 -38 10 -119 85 -117 108 -123 110 -242 75 l-69 -21 -27 26 c-63 58
-155 71 -245 36z m183 -61 l30 -22 -90 -51 c-110 -63 -179 -119 -187 -153 -9
-35 9 -51 38 -36 13 7 38 16 55 21 l33 9 -5 -53 c-3 -32 0 -69 8 -93 l14 -40
-85 -59 c-180 -123 -318 -247 -351 -317 -11 -23 -23 -66 -26 -96 -4 -30 -8
-56 -10 -59 -2 -2 -50 13 -107 33 -57 20 -130 43 -163 52 -86 22 -164 62 -180
93 -30 60 17 162 98 212 29 17 79 57 112 88 33 32 85 73 115 92 30 19 62 41
71 49 49 47 119 100 178 133 36 21 96 66 133 99 131 116 244 150 319 98z m69
-31 c0 -5 -4 -9 -10 -9 -5 0 -10 7 -10 16 0 8 5 12 10 9 6 -3 10 -10 10 -16z
m284 -55 c66 -62 76 -76 60 -80 -10 -3 -77 -29 -149 -58 -90 -37 -132 -50
-137 -42 -21 31 9 193 41 229 6 6 54 18 101 26 3 0 41 -33 84 -75z m-209 56
c-3 -5 -10 -10 -16 -10 -5 0 -9 5 -9 10 0 6 7 10 16 10 8 0 12 -4 9 -10z m-35
-25 c0 -3 -9 -23 -20 -45 -11 -21 -21 -59 -22 -84 -2 -25 -5 -46 -7 -46 -3 0
-15 10 -29 23 -20 19 -34 22 -103 22 -43 0 -79 1 -79 1 0 5 143 84 180 99 25
10 49 22 55 27 10 9 25 11 25 3z m364 -116 c-10 -16 -24 -9 -24 12 0 18 2 19
15 9 8 -7 12 -16 9 -21z m211 -45 c5 -38 3 -48 -12 -59 -21 -16 -150 -93 -203
-122 -19 -10 -54 -31 -77 -46 -24 -15 -45 -27 -47 -27 -2 0 -8 15 -11 33 -9
41 -37 96 -64 124 l-21 23 37 16 c99 42 144 57 213 75 66 16 94 21 161 27 13
2 19 -10 24 -44z m-842 22 c4 -10 -4 -18 -24 -25 -33 -11 -36 -6 -12 21 19 22
29 23 36 4z m89 -83 c0 -43 9 -62 30 -63 4 0 8 26 10 57 l3 58 38 -35 39 -36
-24 -36 c-12 -20 -33 -39 -45 -42 -11 -3 -28 -9 -36 -12 -12 -4 -18 5 -26 33
-12 43 -15 116 -4 126 11 12 15 0 15 -50z m178 -19 c0 -11 -22 -2 -41 17 -20
20 -20 21 -3 34 17 12 20 10 31 -17 7 -17 13 -32 13 -34z m124 11 c-4 -8 -11
-12 -16 -9 -6 4 -5 10 3 15 19 12 19 11 13 -6z m581 -56 c11 -5 46 -18 78 -30
99 -36 93 -49 -93 -179 -123 -87 -226 -163 -501 -372 -86 -65 -160 -118 -164
-118 -4 0 -36 -20 -70 -45 -62 -44 -115 -98 -115 -116 0 -20 46 -7 66 19 l22
27 22 -22 c22 -25 82 -31 110 -13 13 8 10 14 -15 35 -21 18 -24 23 -8 15 12
-5 25 -15 28 -20 3 -6 12 -10 18 -10 23 0 181 150 230 218 17 23 39 42 49 42
10 0 18 4 18 9 0 5 8 11 18 13 9 3 78 45 152 93 145 95 242 178 234 200 -7 17
-32 8 -59 -20 -40 -42 -292 -225 -309 -225 -13 0 10 43 28 52 11 6 26 16 32
22 6 6 37 29 68 51 32 22 101 73 155 113 54 39 105 72 114 72 29 0 41 -27 27
-62 -19 -51 -90 -109 -222 -182 -151 -84 -209 -127 -323 -237 -49 -48 -101
-98 -115 -109 -96 -83 -226 -137 -303 -125 -46 8 -260 115 -376 189 -41 26
-89 55 -107 63 -32 16 -33 18 -28 62 15 133 63 195 270 348 115 85 160 116
207 142 52 30 54 30 102 16 28 -8 63 -17 79 -20 l29 -6 -25 -27 c-26 -27 -27
-52 -4 -52 7 0 27 18 45 40 17 22 38 40 46 40 8 0 15 9 15 20 0 17 -7 20 -41
20 -36 0 -41 3 -50 30 -12 34 -33 38 -67 14 -13 -9 -26 -13 -30 -10 -13 13 27
38 82 50 l57 14 34 -35 c33 -34 57 -100 63 -176 3 -28 50 -14 141 41 42 24
105 61 141 80 36 19 85 49 110 67 44 31 46 31 80 17 19 -8 44 -19 55 -23z
m-688 -66 c3 -7 -3 -9 -16 -6 -12 3 -21 10 -21 15 0 13 32 6 37 -9z m856 -341
c-69 -95 -79 -102 -127 -102 -43 0 -69 -14 -78 -42 -3 -8 -14 -3 -30 16 -28
33 -67 31 -53 -2 4 -9 10 -38 12 -63 5 -42 3 -49 -20 -64 -14 -9 -52 -51 -83
-93 -65 -86 -105 -126 -149 -149 -16 -9 -52 -33 -80 -53 -110 -82 -220 -136
-309 -150 -74 -12 -78 -11 -171 45 -80 48 -139 74 -240 105 -38 12 -111 41
-162 66 -86 41 -93 46 -99 80 -6 33 -3 39 41 80 50 45 71 48 61 9 -4 -15 0
-30 10 -39 19 -20 24 -20 50 -2 18 13 25 11 70 -18 28 -17 107 -60 176 -95
157 -79 210 -87 307 -47 36 14 68 26 72 26 28 0 163 104 274 212 44 42 94 87
110 100 17 12 32 25 35 28 8 9 120 73 192 109 37 19 80 45 95 57 20 17 41 23
76 24 l49 0 -29 -38z m-475 -89 c4 -26 -63 -62 -82 -43 -8 8 -6 15 8 26 11 8
26 14 33 14 7 0 13 5 13 11 0 5 -5 7 -12 3 -6 -4 -8 -3 -5 4 11 17 42 7 45
-15z m-1484 -31 c3 -5 33 -17 68 -26 76 -22 283 -91 328 -109 l32 -14 -36 -23
c-48 -29 -70 -63 -62 -95 8 -32 2 -31 -32 1 -30 29 -108 67 -162 80 -19 4 -39
9 -45 10 -5 2 -39 8 -75 14 -63 11 -115 35 -140 65 -15 18 -3 35 54 77 40 29
61 35 70 20z m1998 -38 c4 -3 8 -14 8 -25 0 -11 6 -22 13 -25 8 -3 12 -16 9
-33 -4 -28 -4 -29 -23 -10 -16 16 -34 18 -131 18 -144 -1 -138 -2 -138 17 0 8
4 13 9 10 5 -4 21 9 36 26 23 27 37 34 79 38 47 5 117 -4 138 -16z m-627 -27
c-16 -17 -70 -73 -119 -124 -84 -86 -91 -91 -110 -77 -11 8 -32 14 -46 14
l-25 0 25 19 c22 18 28 18 58 5 43 -18 47 -18 32 1 -7 8 -22 15 -33 15 -14 0
-1 12 39 39 32 21 90 63 129 94 75 60 96 67 50 14z m790 15 c-8 -8 -25 10 -19
20 4 6 9 5 15 -3 4 -7 6 -15 4 -17z m280 2 c14 -15 25 -31 25 -36 0 -17 -65
-48 -95 -46 -42 4 -34 21 17 35 36 9 46 20 13 13 -5 -1 -51 -3 -102 -4 -51 -1
-96 -6 -100 -11 -4 -4 -2 -5 5 -1 7 4 12 1 12 -8 0 -8 3 -23 7 -33 6 -16 5
-16 -10 -4 -15 12 -17 12 -11 -2 3 -9 13 -17 22 -19 14 -3 13 -6 -5 -16 -20
-11 -23 -10 -24 5 -5 58 -6 70 -13 91 -7 21 -5 23 13 17 27 -8 61 3 61 20 0
17 20 22 98 24 56 1 66 -2 87 -25z m115 22 c0 -3 -4 -8 -10 -11 -5 -3 -10 -1
-10 4 0 6 5 11 10 11 6 0 10 -2 10 -4z m-828 -48 c-9 -9 -12 -7 -12 12 0 19 3
21 12 12 9 -9 9 -15 0 -24z m349 -10 c-35 -78 -42 -105 -41 -157 0 -28 -2 -32
-14 -22 -15 13 -18 51 -4 51 4 0 5 6 3 13 -6 15 32 121 45 125 6 2 10 10 10
18 0 8 4 14 10 14 5 0 1 -19 -9 -42z m66 -92 c4 -80 1 -128 -13 -196 -10 -49
-21 -90 -25 -90 -22 0 -29 208 -10 306 21 106 21 108 33 96 5 -5 13 -58 15
-116z m373 109 c0 -8 -4 -15 -8 -15 -4 0 -9 -12 -10 -27 -3 -40 -20 -51 -28
-19 -4 17 -1 35 10 51 18 28 36 33 36 10z m-195 -35 c7 -11 -35 -30 -66 -30
-12 0 -19 5 -17 13 4 10 26 18 70 26 4 0 10 -4 13 -9z m-465 -37 c10 -10 -28
-23 -67 -23 -33 0 -43 -4 -43 -16 0 -16 13 -16 75 3 18 5 18 4 6 -11 -9 -10
-21 -14 -34 -10 -12 4 -17 2 -13 -4 7 -12 -28 -35 -38 -25 -3 3 -6 -5 -6 -20
0 -14 -5 -29 -10 -32 -7 -4 -8 3 -3 22 4 15 7 43 7 60 1 18 4 33 9 33 4 0 7 6
7 14 0 8 10 17 23 19 22 5 78 -2 87 -10z m146 -4 c17 -14 18 -29 3 -29 -5 0
-8 4 -4 10 3 5 -12 8 -40 5 -24 -2 -47 1 -50 6 -9 14 -27 11 -19 -3 5 -10 3
-10 -7 0 -12 11 -12 14 1 23 18 12 97 4 116 -12z m428 -13 c-14 -11 -24 -11
-43 -3 l-24 12 32 6 c18 4 35 10 39 13 4 4 8 2 10 -4 2 -6 -4 -17 -14 -24z
m-718 -22 c-5 -20 -10 -23 -24 -15 -12 7 -23 5 -37 -7 -11 -9 -2 3 20 26 40
43 52 42 41 -4z m757 -51 c-6 -32 -7 -69 -3 -84 7 -23 5 -26 -14 -26 -19 0
-21 4 -18 38 2 21 8 36 13 33 5 -3 9 -1 9 5 0 5 -4 12 -9 15 -5 3 -7 15 -4 27
4 16 8 17 14 7 5 -7 9 -8 9 -2 0 5 -5 15 -11 21 -6 6 -7 22 -3 39 7 28 7 28
17 6 7 -15 7 -41 0 -79z m-197 72 c-19 -14 -36 -12 -36 6 0 5 12 9 28 9 26 -1
26 -1 8 -15z m93 -4 l23 -18 -30 -12 c-25 -10 -35 -10 -57 2 l-28 14 24 16
c29 21 38 21 68 -2z m-435 -40 c3 -5 -8 -14 -26 -20 -38 -14 -39 -14 -62 4
-18 14 -18 15 5 34 21 17 27 18 51 5 15 -8 29 -18 32 -23z m60 14 c11 -8 16
-18 11 -22 -4 -5 -10 -2 -12 5 -3 6 -13 12 -23 12 -10 0 -22 5 -25 10 -9 15
27 11 49 -5z m442 -30 c-1 -25 -4 -45 -7 -45 -13 0 -30 30 -24 41 5 8 1 9 -13
5 -37 -12 -33 12 6 27 20 9 37 16 38 16 0 1 0 -19 0 -44z m-2411 5 c142 -30
160 -38 247 -97 125 -86 342 -184 351 -159 2 6 8 8 12 4 4 -4 0 -17 -9 -30
-12 -17 -16 -18 -16 -6 0 12 -14 17 -56 23 -79 10 -99 13 -189 35 -44 11 -114
21 -155 24 -59 3 -91 12 -152 39 -42 20 -93 39 -112 43 -60 11 -86 38 -86 90
0 37 4 46 23 54 12 5 29 6 37 4 8 -3 56 -14 105 -24z m513 18 c-6 -18 -28 -21
-28 -4 0 9 7 16 16 16 9 0 14 -5 12 -12z m1756 -2 l27 -14 -31 -22 c-17 -12
-29 -24 -26 -27 2 -3 20 7 40 22 37 28 54 26 89 -13 17 -19 17 -20 -23 -36
-30 -12 -46 -13 -60 -6 -10 5 -25 10 -32 10 -7 -1 1 -7 17 -14 l30 -13 -32
-17 c-25 -12 -33 -13 -33 -4 -1 7 -3 43 -6 81 -6 72 -3 76 40 53z m-55 -64
c-2 -31 1 -65 5 -75 13 -29 -4 -34 -24 -7 -11 14 -20 21 -20 16 0 -6 12 -22
27 -38 14 -15 24 -31 20 -34 -3 -3 -18 7 -32 22 -21 23 -24 24 -16 7 6 -12 21
-29 32 -37 12 -8 19 -21 16 -29 -9 -23 -44 -27 -63 -6 -14 16 -15 24 -3 71 13
54 15 62 17 87 2 11 6 10 18 -5 15 -17 15 -17 0 8 -9 15 -16 35 -16 45 1 17 2
16 15 -1 16 -21 20 -10 6 14 -11 16 -4 33 10 24 5 -3 9 -31 8 -62z m-553 46
c-3 -7 -7 -25 -10 -40 -4 -16 -13 -28 -21 -28 -7 0 -38 -24 -69 -52 -136 -130
-295 -229 -462 -287 -61 -22 -82 -36 -71 -48 16 -15 138 32 322 124 27 14 29
14 15 0 -20 -21 -254 -149 -310 -170 -65 -24 -190 -48 -214 -42 -67 19 -136
49 -136 60 0 7 -10 24 -21 39 -20 26 -59 132 -59 162 0 20 82 -13 174 -70 122
-76 133 -79 223 -60 167 34 413 185 568 349 39 41 71 74 72 74 1 1 1 -5 -1
-11z m149 -12 l27 -14 -61 -31 -61 -31 6 28 c4 15 10 28 14 30 4 1 16 9 26 17
10 8 20 15 20 15 1 0 14 -6 29 -14z m147 2 c12 -9 15 -22 11 -40 -7 -34 -10
-34 -64 -4 l-42 25 34 14 c43 19 42 19 61 5z m-63 -50 c22 -12 38 -25 35 -29
-9 -15 -85 -31 -97 -20 -7 5 -28 13 -47 19 l-35 9 40 20 c52 27 56 27 104 1z
m-824 1 c12 -19 -3 -22 -27 -5 l-22 16 21 0 c12 0 25 -5 28 -11z m933 -1 c7
-7 12 -21 12 -32 0 -19 -1 -19 -20 2 -30 32 -23 61 8 30z m400 -29 c1 -25 -2
-29 -16 -24 -39 16 -54 15 -22 -2 28 -14 36 -25 38 -51 4 -35 -2 -38 -45 -21
l-28 11 35 18 c19 11 29 19 22 20 -7 0 -27 -7 -44 -16 -20 -11 -42 -14 -67
-10 -57 10 -17 -10 61 -30 37 -10 68 -21 68 -26 0 -4 7 -8 15 -8 8 0 15 -5 15
-10 0 -6 -11 -8 -27 -4 -15 4 -59 8 -98 8 l-72 1 -2 45 -2 46 83 41 c46 23 83
42 84 43 1 0 1 -14 2 -31z m-694 -16 c-7 -2 -9 -13 -6 -25 3 -15 2 -19 -7 -14
-10 6 -10 21 -2 66 1 2 7 -2 14 -9 9 -10 9 -15 1 -18z m96 -5 c35 -11 35 -11
10 -20 -14 -5 -38 -16 -53 -24 -40 -20 -45 -18 -40 14 8 48 12 54 31 47 9 -4
33 -12 52 -17z m149 -54 c-8 -10 -8 -14 0 -14 6 0 11 -12 11 -26 0 -22 -3 -24
-22 -18 -13 4 -39 10 -58 14 l-35 7 45 10 c33 8 38 11 18 12 -15 1 -38 -3 -52
-9 -28 -10 -132 -1 -119 11 4 4 31 17 60 28 49 19 54 19 98 4 54 -18 70 -13
20 7 l-35 14 38 16 37 17 3 -29 c2 -16 -2 -36 -9 -44z m61 23 c0 -17 -2 -18
-17 -6 -15 12 -15 10 1 -8 12 -15 17 -32 14 -53 -3 -17 -1 -33 4 -36 4 -3 8
-10 8 -17 0 -8 -3 -8 -11 0 -6 6 -17 9 -24 7 -8 -3 -12 9 -13 36 -1 29 2 39
10 34 7 -4 8 -3 4 5 -4 7 -9 30 -11 52 -3 39 -3 40 16 23 10 -9 19 -26 19 -37z
m-380 19 c0 -20 -17 -36 -80 -80 -84 -58 -110 -61 -37 -5 23 19 58 50 77 70
19 21 36 38 38 38 1 1 2 -10 2 -23z m810 -19 c0 -1 9 -26 19 -55 12 -33 15
-52 8 -52 -16 0 -57 41 -57 58 0 9 7 6 20 -9 23 -28 26 -22 7 15 -8 14 -17 23
-20 19 -4 -3 -7 -2 -7 4 0 12 10 23 22 23 4 0 8 -1 8 -3z m-740 -34 c0 -13 -3
-13 -17 -2 -15 11 -14 9 1 -9 23 -27 16 -40 -8 -14 -9 11 -14 26 -10 35 7 19
34 11 34 -10z m-76 -37 c-3 -9 -10 -16 -15 -16 -14 0 -11 28 4 33 16 6 19 3
11 -17z m149 14 c32 0 32 0 -12 -20 -54 -25 -51 -25 -51 6 0 20 4 25 16 20 9
-3 30 -6 47 -6z m-94 -19 c17 -17 18 -20 3 -24 -10 -3 -25 -8 -35 -12 -13 -6
-16 -4 -11 9 4 11 13 15 23 11 13 -5 14 -4 4 6 -13 13 -17 29 -8 29 3 0 14 -9
24 -19z m209 -5 c71 -15 98 -30 37 -21 -22 4 -66 7 -97 8 -59 2 -77 12 -35 20
12 2 24 5 27 5 3 1 33 -5 68 -12z m260 -18 c-2 -6 -10 -14 -16 -16 -7 -2 -10
2 -6 12 7 18 28 22 22 4z m-1928 -2 c0 -2 -3 -11 -6 -20 -5 -14 -9 -14 -35 0
-38 19 -37 24 6 24 19 0 35 -2 35 -4z m2298 -41 c-9 -9 -30 14 -23 25 6 9 10
8 17 -4 6 -10 8 -19 6 -21z m-2188 4 l25 -7 -25 -2 -25 -2 25 -7 c14 -4 32 -3
40 2 9 5 29 5 50 -2 l35 -11 -32 5 c-18 2 -33 0 -33 -5 0 -12 57 -13 64 -2 5
8 113 0 118 -8 2 -3 12 -30 22 -60 10 -30 21 -61 24 -68 4 -12 1 -12 -17 -1
-11 8 -21 21 -21 31 0 9 -5 20 -11 24 -7 4 -9 0 -5 -14 6 -17 -14 -11 -131 42
-151 68 -203 94 -203 102 0 5 60 -4 100 -17z m1130 12 c0 -9 -64 -61 -74 -61
-18 0 -1 31 27 49 35 23 47 26 47 12z m159 -17 c-15 -18 -22 -13 -13 10 3 9
10 13 16 10 5 -3 4 -12 -3 -20z m446 16 c5 -8 11 -8 20 0 9 7 16 6 25 -5 11
-13 10 -14 -4 -9 -9 3 -23 1 -31 -6 -19 -16 -46 -6 -39 15 7 17 20 20 29 5z
m-143 -26 c40 -9 80 -17 88 -19 8 -2 18 -4 23 -4 4 -1 5 -11 2 -23 -3 -13 -7
-33 -8 -45 -1 -23 -30 -28 -56 -9 -11 8 -13 8 -7 -1 11 -20 -12 -15 -24 5 -11
16 -11 16 -6 0 8 -26 -9 -22 -28 7 l-16 25 32 -7 c18 -3 41 -10 50 -14 9 -5
25 -9 35 -9 15 1 15 2 3 9 -32 18 -160 41 -201 35 -67 -8 -143 -25 -156 -36
-17 -14 -30 -3 -35 31 -4 26 0 31 31 45 20 8 45 17 56 19 46 10 149 6 217 -9z
m501 1 c88 -17 100 -22 91 -37 -4 -6 -25 -7 -53 -4 -33 5 -42 4 -31 -3 8 -6
27 -11 43 -11 20 0 27 -5 27 -20 0 -20 -11 -26 -24 -13 -10 11 -77 32 -122 39
-36 5 -121 -10 -175 -31 -12 -5 -20 2 -28 26 -6 17 -8 35 -5 40 18 29 159 37
277 14z m-622 -81 c12 -14 11 -16 -5 -13 -11 2 -21 10 -24 17 -5 17 13 15 29
-4z m33 1 c3 -8 2 -15 -3 -15 -5 0 -14 7 -21 15 -10 12 -10 15 3 15 8 0 17 -7
21 -15z m30 -1 c4 -10 1 -14 -6 -12 -15 5 -23 28 -10 28 5 0 13 -7 16 -16z
m26 -24 c-8 -5 -26 -9 -40 -8 -23 1 -23 1 3 5 23 4 27 8 21 26 -6 21 -5 21 12
4 17 -15 17 -19 4 -27z m418 21 c3 -10 0 -12 -12 -8 -9 4 -16 2 -16 -3 0 -6
-6 -10 -14 -10 -18 0 -29 27 -13 33 23 8 50 2 55 -12z m26 4 c3 -8 1 -15 -3
-15 -5 0 -11 7 -15 15 -3 8 -1 15 3 15 5 0 11 -7 15 -15z m45 -7 c6 -13 9 -15
7 -5 -6 18 4 21 42 11 12 -4 22 -13 22 -20 0 -17 -12 -18 -28 -2 -7 7 -12 8
-12 2 0 -6 -24 -10 -52 -10 -29 0 -43 2 -30 4 17 3 21 8 17 23 -9 27 19 25 34
-3z m-645 -4 c3 -9 6 -17 6 -18 0 -1 -26 -2 -57 -3 l-58 0 34 14 c28 12 36 12
42 1 7 -10 9 -9 9 5 0 21 16 22 24 1z m34 -3 c3 -8 -1 -12 -9 -9 -7 2 -15 10
-17 17 -3 8 1 12 9 9 7 -2 15 -10 17 -17z m468 -18 c-3 -3 -12 0 -21 7 -10 8
-15 9 -15 1 0 -6 -4 -11 -10 -11 -19 0 -10 21 13 29 16 6 24 4 30 -6 5 -8 6
-17 3 -20z m-1578 -77 c-2 -10 -7 -13 -17 -7 -8 6 -11 16 -7 27 8 21 30 4 24
-20z"/>
<path d="M274 1575 c-9 -22 2 -32 43 -38 21 -4 91 -34 155 -67 112 -57 160
-71 173 -51 8 14 -7 24 -115 79 -148 76 -245 105 -256 77z"/>
<path d="M1250 1837 c-14 -7 -26 -22 -28 -34 -5 -32 43 -43 69 -16 19 19 19
20 2 41 -16 19 -21 20 -43 9z"/>
<path d="M924 1576 c-15 -12 -17 -18 -8 -33 24 -40 83 -17 69 27 -7 23 -33 26
-61 6z"/>
<path d="M853 1293 c-4 -10 -1 -19 8 -21 8 -3 79 -38 158 -79 142 -72 164 -79
195 -67 16 6 23 33 9 35 -37 3 -70 17 -162 67 -153 82 -196 96 -208 65z"/>
<path d="M1880 1344 c-25 -19 -68 -57 -96 -83 -28 -26 -100 -84 -160 -129 -60
-45 -114 -86 -121 -92 -7 -6 -45 -27 -85 -48 -76 -40 -100 -72 -55 -72 13 0
46 11 72 25 45 25 49 25 80 10 46 -21 48 -20 103 28 26 24 83 69 125 101 83
62 180 179 173 209 -2 10 6 25 20 36 28 22 32 51 7 50 -10 0 -38 -16 -63 -35z
m-71 -145 c-121 -117 -164 -150 -183 -143 -12 5 1 19 52 56 37 28 98 80 135
115 38 35 72 62 75 59 3 -4 -32 -43 -79 -87z m-186 -155 c3 -4 -4 -14 -16 -24
-16 -13 -27 -16 -40 -8 -18 9 -18 10 0 23 19 15 46 19 56 9z m-106 -31 c-4 -3
-1 -13 6 -22 11 -14 10 -14 -5 -2 -16 12 -16 31 -1 31 4 0 3 -3 0 -7z m33 -13
c0 -5 -2 -10 -4 -10 -3 0 -8 5 -11 10 -3 6 -1 10 4 10 6 0 11 -4 11 -10z"/>
<path d="M255 1360 c-10 -17 3 -27 41 -33 20 -3 76 -29 125 -57 97 -55 106
-57 135 -35 16 12 17 14 2 15 -9 0 -18 3 -20 8 -3 7 -38 27 -147 84 -54 28
-124 37 -136 18z"/>
<path d="M2485 1000 c10 -11 22 -20 27 -20 4 0 -1 9 -12 20 -11 11 -23 20 -27
20 -3 0 2 -9 12 -20z"/>
<path d="M2574 995 c-10 -8 -14 -15 -8 -15 5 0 19 7 30 15 10 8 14 15 8 15 -5
0 -19 -7 -30 -15z"/>
<path d="M2305 991 c-3 -5 -2 -12 3 -15 5 -3 9 1 9 9 0 17 -3 19 -12 6z"/>
<path d="M815 873 c17 -2 38 -14 47 -26 10 -12 18 -17 18 -10 0 22 -31 43 -63
42 l-32 -2 30 -4z"/>
<path d="M2075 879 c-5 -7 5 -8 32 -3 51 9 54 14 10 14 -20 0 -39 -5 -42 -11z"/>
<path d="M2210 880 c0 -4 10 -10 23 -14 26 -7 72 -8 66 -2 -9 10 -89 24 -89
16z"/>
<path d="M1973 873 c-13 -2 -23 -8 -23 -12 0 -10 69 -1 76 10 5 9 -13 10 -53
2z"/>
<path d="M2540 888 c-19 -5 -39 -14 -45 -20 -7 -7 -4 -8 10 -5 11 4 32 9 48
13 15 3 27 10 27 15 0 5 -1 9 -2 8 -2 0 -19 -5 -38 -11z"/>
<path d="M2621 886 c10 -8 89 -13 89 -5 0 5 -21 9 -47 9 -25 0 -44 -2 -42 -4z"/>
</g>
</svg>
