<?xml version="1.0" standalone="no"?>
<!DOCTYPE svg PUBLIC "-//W3C//DTD SVG 20010904//EN"
 "http://www.w3.org/TR/2001/REC-SVG-20010904/DTD/svg10.dtd">
<svg version="1.0" xmlns="http://www.w3.org/2000/svg"
 width="300.000000pt" height="300.000000pt" viewBox="0 0 300.000000 300.000000"
 preserveAspectRatio="xMidYMid meet">
<metadata>
Created by potrace 1.10, written by Peter Selinger 2001-2011
</metadata>
<g transform="translate(0.000000,300.000000) scale(0.100000,-0.100000)"
fill="#000000" stroke="none">
<path d="M2485 2095 c-5 -1 -44 -13 -85 -25 -41 -12 -86 -26 -100 -30 -34 -11
-304 -96 -415 -130 -49 -16 -126 -38 -170 -50 -44 -12 -96 -28 -115 -36 -19
-7 -75 -25 -125 -38 -49 -14 -117 -35 -150 -46 -33 -12 -107 -36 -165 -54 -58
-19 -132 -44 -165 -56 -163 -59 -277 -91 -288 -82 -8 7 -78 -11 -217 -54 -113
-36 -210 -66 -217 -67 -17 -4 -26 -15 -29 -35 -8 -53 -11 -57 -55 -68 -33 -8
-44 -16 -44 -30 0 -16 7 -19 45 -19 l45 0 7 -45 c4 -25 9 -54 10 -64 2 -15 -6
-22 -32 -28 -81 -21 -78 -63 4 -53 l51 7 22 -63 c12 -35 20 -66 17 -71 -3 -4
-18 -8 -33 -8 -37 0 -66 -22 -58 -45 7 -17 39 -17 99 1 13 4 22 -5 35 -33 9
-21 19 -41 20 -44 2 -4 -15 -13 -39 -21 -30 -10 -44 -21 -46 -35 -3 -23 24
-39 42 -24 6 5 25 12 43 15 25 6 34 3 46 -14 37 -53 46 -54 179 -14 68 20 132
41 143 47 10 5 53 18 95 29 43 10 82 26 91 37 15 18 79 39 503 161 99 28 234
70 300 91 67 22 128 42 136 44 8 3 80 25 160 49 80 24 230 69 333 100 324 95
469 164 504 236 32 67 12 261 -38 375 -15 33 -24 43 -37 39 -15 -5 -15 -4 -2
5 13 10 5 20 -45 66 -33 30 -78 61 -100 68 -37 13 -137 20 -160 12z m145 -76
c117 -53 176 -163 187 -350 7 -112 -5 -136 -90 -182 -34 -19 -87 -43 -117 -52
-30 -10 -59 -21 -65 -25 -9 -7 -245 -78 -364 -110 -33 -9 -41 -14 -30 -21 10
-7 7 -8 -11 -4 -25 5 -80 -10 -420 -117 -181 -57 -429 -132 -490 -148 -19 -5
-57 -16 -85 -25 -27 -9 -68 -21 -90 -26 -22 -6 -60 -17 -84 -25 -40 -13 -45
-13 -63 3 -25 23 -53 76 -68 131 -6 24 -13 49 -16 56 -4 10 11 17 48 26 29 7
91 23 138 36 47 14 117 34 155 45 39 11 117 35 175 55 58 19 173 52 255 73 83
21 182 48 220 60 98 31 204 61 245 71 65 15 619 191 678 215 39 17 42 47 9 96
-30 45 -77 50 -167 15 -36 -13 -81 -27 -100 -31 -43 -8 -230 -64 -365 -110
-55 -19 -143 -45 -195 -59 -52 -14 -131 -36 -175 -49 -44 -14 -125 -38 -180
-54 -55 -17 -133 -42 -174 -57 -41 -15 -142 -44 -225 -65 -266 -68 -366 -99
-366 -113 0 -5 -9 -4 -20 2 -29 15 -56 76 -64 143 -7 49 -5 57 9 57 10 0 83
22 164 49 412 137 676 221 866 276 106 30 322 98 355 111 53 20 215 72 310 99
105 30 152 31 210 4z m120 -44 c13 -14 21 -25 18 -25 -2 0 -15 11 -28 25 -13
14 -21 25 -18 25 2 0 15 -11 28 -25z m-50 -200 c8 -9 9 -19 4 -24 -10 -8 -259
-89 -359 -116 -33 -9 -71 -20 -85 -25 -14 -5 -63 -20 -110 -34 -211 -61 -267
-78 -290 -86 -14 -5 -38 -11 -53 -14 -18 -4 -25 -11 -21 -19 5 -9 4 -9 -6 0
-9 8 -20 9 -39 1 -14 -5 -66 -20 -116 -33 -161 -43 -269 -73 -330 -93 -74 -25
-251 -78 -285 -87 -14 -4 -62 -18 -108 -33 -71 -22 -85 -24 -93 -11 -15 23
-11 28 34 40 23 6 74 21 112 34 79 26 156 46 265 71 41 9 140 38 220 64 80 26
179 58 220 70 41 12 107 33 145 45 39 12 99 30 135 39 85 22 130 35 155 46 32
13 235 78 295 94 149 39 246 68 260 76 22 13 36 12 50 -5z m-1996 -264 c3 -4
3 -11 0 -14 -8 -8 -34 3 -34 14 0 11 27 12 34 0z m-24 -31 c0 -5 -4 -10 -10
-10 -5 0 -10 5 -10 10 0 6 5 10 10 10 6 0 10 -4 10 -10z m-43 -47 c3 -86 71
-323 126 -441 21 -44 26 -50 37 -37 11 14 7 19 -12 16 -11 -1 -10 17 1 23 11
7 53 -62 55 -91 1 -15 4 -18 13 -12 6 6 14 6 16 1 3 -4 -2 -13 -12 -19 -14 -9
-20 -7 -29 8 -10 15 -9 19 0 19 9 1 8 5 -3 13 -9 7 -14 18 -12 25 3 6 0 12 -6
12 -19 0 -21 -18 -6 -46 17 -33 19 -48 6 -39 -27 16 -108 199 -162 365 -28 87
-47 219 -35 239 14 22 21 10 23 -36z m-37 -32 c0 -96 113 -426 174 -505 31
-41 32 -46 7 -46 -10 0 -35 -7 -55 -15 -20 -8 -38 -15 -41 -15 -5 -1 -1 1
-113 -34 -69 -22 -86 -24 -97 -13 -39 39 -131 258 -165 391 -20 80 -26 181
-12 203 4 7 28 17 52 22 25 6 86 24 135 40 50 16 96 30 103 30 8 1 12 -17 12
-58z m70 43 c0 -2 -7 -4 -15 -4 -8 0 -15 4 -15 10 0 5 7 7 15 4 8 -4 15 -8 15
-10z m22 -56 c3 -18 9 -42 13 -53 7 -19 7 -19 -9 -4 -19 18 -36 107 -19 96 6
-4 13 -21 15 -39z m-432 -84 c0 -8 -5 -12 -10 -9 -6 4 -8 11 -5 16 9 14 15 11
15 -7z m440 -4 c0 -5 -7 -10 -16 -10 -8 0 -12 5 -9 10 3 6 10 10 16 10 5 0 9
-4 9 -10z m40 -61 c0 -4 -9 -9 -21 -12 -17 -5 -20 -2 -16 14 4 15 2 19 -9 15
-14 -5 -19 5 -8 17 7 6 53 -23 54 -34z m20 -26 c0 -14 2 -15 9 -4 6 9 11 10
15 2 4 -6 -1 -14 -11 -18 -10 -3 -26 -13 -36 -21 -9 -8 -20 -12 -23 -9 -4 4 4
15 17 26 13 11 19 20 12 21 -6 0 -15 -5 -18 -10 -4 -6 -11 -7 -17 -4 -6 4 -1
12 13 20 32 18 39 17 39 -3z m28 -45 c-15 -14 -55 -38 -63 -38 -26 0 37 49 63
50 11 0 11 -2 0 -12z m-498 -44 c0 -8 -5 -12 -10 -9 -6 4 -8 11 -5 16 9 14 15
11 15 -7z m490 6 c0 -12 -40 -34 -48 -26 -3 4 3 13 14 21 22 17 34 19 34 5z
m-18 -52 c-6 -6 -15 -8 -19 -4 -4 4 -1 11 7 16 19 12 27 3 12 -12z m30 -42 c5
-27 -16 -44 -28 -24 -4 7 -3 13 3 15 6 2 8 13 5 25 -3 13 -1 19 5 15 6 -4 13
-18 15 -31z m-438 -92 c3 -8 2 -12 -4 -9 -6 3 -10 10 -10 16 0 14 7 11 14 -7z
m545 -37 c20 -23 21 -25 4 -38 -15 -12 -16 -12 -10 3 3 10 0 24 -8 32 -14 14
-19 26 -12 26 2 0 13 -11 26 -23z m-479 -107 c0 -5 -7 -7 -15 -4 -8 4 -12 10
-9 15 6 11 24 2 24 -11z"/>
</g>
</svg>
