<?xml version="1.0" standalone="no"?>
<!DOCTYPE svg PUBLIC "-//W3C//DTD SVG 20010904//EN"
 "http://www.w3.org/TR/2001/REC-SVG-20010904/DTD/svg10.dtd">
<svg version="1.0" xmlns="http://www.w3.org/2000/svg"
 width="371.000000pt" height="322.000000pt" viewBox="0 0 371.000000 322.000000"
 preserveAspectRatio="xMidYMid meet">

<g transform="translate(0.000000,322.000000) scale(0.100000,-0.100000)"
fill="#000000" stroke="none">
<path d="M1234 2300 c-18 -6 -45 -25 -62 -44 -78 -89 -29 -228 87 -243 94 -13
166 50 166 143 0 103 -93 173 -191 144z"/>
<path d="M2285 2303 c-71 -17 -125 -109 -106 -181 12 -44 65 -98 107 -108 123
-31 225 103 166 216 -29 55 -104 88 -167 73z"/>
<path d="M671 1726 c-32 -18 -50 -53 -51 -101 0 -49 53 -240 86 -305 13 -26
24 -52 24 -58 0 -14 65 -107 118 -169 56 -67 134 -119 297 -199 144 -70 274
-117 410 -146 120 -26 370 -35 501 -18 193 24 410 93 615 195 99 50 107 56
142 113 57 92 153 301 188 410 41 129 47 196 20 240 -52 82 -163 55 -269 -64
-29 -33 -53 -51 -57 -45 -4 8 -142 11 -446 11 l-440 0 16 31 c21 39 16 73 -10
77 -17 2 -24 -7 -39 -53 l-19 -55 -411 0 -411 0 -40 47 c-77 90 -162 123 -224
89z m170 -113 l79 -78 0 -223 0 -224 -50 59 c-63 72 -132 214 -171 347 -44
152 -36 196 33 196 25 0 46 -14 109 -77z m2139 48 c5 -11 10 -31 10 -44 0 -93
-194 -557 -232 -557 -5 0 -8 106 -8 236 l0 235 31 46 c58 84 173 132 199 84z
m-280 -387 l0 -275 -122 -59 c-134 -63 -296 -118 -435 -147 -68 -13 -133 -18
-283 -17 -177 0 -206 3 -315 28 -65 15 -151 39 -190 53 -85 30 -273 120 -338
162 l-47 31 0 245 0 245 863 3 c474 1 863 3 865 5 1 1 2 -122 2 -274z"/>
</g>
</svg>
