<?xml version="1.0" standalone="no"?>
<!DOCTYPE svg PUBLIC "-//W3C//DTD SVG 20010904//EN"
 "http://www.w3.org/TR/2001/REC-SVG-20010904/DTD/svg10.dtd">
<svg version="1.0" xmlns="http://www.w3.org/2000/svg"
 width="1013.000000pt" height="973.000000pt" viewBox="0 0 1013.000000 973.000000"
 preserveAspectRatio="xMidYMid meet">

<g transform="translate(0.000000,973.000000) scale(0.100000,-0.100000)"
fill="#000000" stroke="none">
<path d="M6084 8785 c-220 -33 -440 -110 -628 -217 -217 -125 -165 -74 -2424
-2332 -1174 -1172 -2159 -2162 -2191 -2201 -387 -471 -506 -1113 -315 -1693
97 -296 240 -521 474 -745 298 -286 702 -463 1107 -485 346 -20 640 40 933
189 156 80 279 165 401 278 l86 79 11 -32 c73 -202 676 -383 1537 -460 451
-41 1182 -46 1615 -11 774 62 1321 192 1507 359 88 79 82 30 83 743 2 705 7
657 -72 729 -212 195 -945 358 -1803 401 -191 10 -1045 9 -1105 0 -44 -8 -29
8 1186 1225 832 833 1251 1260 1293 1316 253 342 375 734 358 1152 -11 273
-69 494 -191 737 -246 491 -698 835 -1251 953 -131 28 -472 36 -611 15z m511
-86 c173 -26 361 -86 523 -168 395 -198 717 -575 850 -992 64 -200 76 -282 77
-524 0 -190 -3 -235 -23 -332 -53 -261 -160 -498 -325 -718 -61 -82 -1953
-1985 -1973 -1985 -11 0 -2427 2373 -2431 2388 -2 4 444 450 990 992 917 911
1000 991 1101 1059 315 210 653 308 1016 295 69 -3 156 -9 195 -15z m-2213
-3531 c628 -619 1172 -1156 1208 -1192 l65 -66 -268 -268 -268 -268 -147 -13
c-312 -26 -612 -74 -860 -137 -325 -82 -506 -174 -563 -286 -19 -38 -20 -60
-19 -596 l0 -558 -87 -85 c-283 -274 -593 -431 -968 -490 -104 -17 -387 -17
-490 0 -381 60 -693 218 -960 486 -145 145 -234 267 -320 440 -247 494 -247
1035 0 1530 124 248 86 207 1354 1478 636 636 1161 1156 1168 1155 6 -2 526
-510 1155 -1130z m1942 -1867 c3 -5 -278 -203 -625 -440 -474 -324 -638 -431
-660 -431 -47 0 -373 39 -514 61 -427 67 -751 175 -862 286 -37 36 -43 48 -43
84 0 36 6 48 41 81 172 164 757 298 1514 348 94 6 188 12 210 14 104 7 934 5
939 -3z m461 -27 c698 -60 1210 -191 1364 -348 86 -87 47 -158 -134 -246 -411
-201 -1410 -317 -2421 -282 -197 7 -362 16 -369 20 -7 4 242 181 628 443 l640
437 61 -5 c34 -2 138 -11 231 -19z m-3137 -593 c52 -36 171 -91 283 -129 664
-228 1977 -310 3066 -191 526 57 949 163 1139 284 30 19 57 35 60 35 3 0 4
-232 3 -516 -3 -591 4 -546 -99 -616 -229 -154 -827 -274 -1590 -318 -238 -14
-900 -14 -1145 0 -915 51 -1575 202 -1727 395 l-23 29 -3 523 c-2 288 -1 523
3 523 4 0 19 -8 33 -19z"/>
<path d="M5232 7796 c-225 -207 -412 -382 -415 -390 -7 -19 20 -56 41 -56 9 0
202 170 427 377 371 340 410 379 410 407 0 26 -4 31 -27 34 -23 3 -85 -50
-436 -372z"/>
</g>
</svg>
