<?xml version="1.0" standalone="no"?>
<!DOCTYPE svg PUBLIC "-//W3C//DTD SVG 20010904//EN"
 "http://www.w3.org/TR/2001/REC-SVG-20010904/DTD/svg10.dtd">
<svg version="1.0" xmlns="http://www.w3.org/2000/svg"
 width="1493.000000pt" height="1091.000000pt" viewBox="0 0 1493.000000 1091.000000"
 preserveAspectRatio="xMidYMid meet">

<g transform="translate(0.000000,1091.000000) scale(0.100000,-0.100000)"
fill="#000000" stroke="none">
<path d="M3341 8865 c-1257 -524 -2293 -958 -2303 -964 -17 -11 -18 -101 -18
-2316 l0 -2305 23 -14 c12 -8 1051 -443 2310 -966 l2287 -953 464 197 c256
108 467 196 470 196 3 0 3 -6 0 -14 -3 -8 4 -21 18 -30 13 -8 640 -269 1394
-579 l1372 -565 2288 954 c1259 524 2296 957 2304 962 8 5 15 20 15 33 0 20
-5 24 -30 23 -16 0 -1047 -425 -2290 -944 -1243 -518 -2267 -945 -2276 -947
-9 -3 -630 248 -1380 557 -750 309 -1372 562 -1381 563 -10 1 -18 9 -18 19 0
49 -25 41 -470 -148 -239 -101 -438 -184 -443 -184 -4 0 -6 1014 -5 2252 l3
2252 448 190 c322 136 451 186 456 178 11 -18 2773 -1154 2791 -1148 8 2 1046
434 2305 959 2289 954 2290 955 2290 983 0 24 -4 29 -25 28 -14 -1 -1046 -427
-2295 -948 -1248 -521 -2277 -948 -2285 -948 -8 -1 -625 250 -1370 557 -745
307 -1364 560 -1375 563 -11 3 -28 12 -37 20 -16 14 -59 -2 -471 -176 -249
-106 -459 -192 -467 -192 -20 0 -1730 712 -1730 720 0 4 1008 426 2240 940
l2240 932 620 -258 c341 -142 617 -261 612 -264 -4 -4 -686 -289 -1517 -634
-830 -345 -1517 -634 -1525 -642 -10 -10 -12 -19 -5 -30 13 -21 2741 -1147
2780 -1148 36 0 4594 1898 4612 1921 13 17 1 53 -18 53 -5 0 -454 183 -997
406 -991 408 -1212 507 -1482 664 -156 91 -249 153 -351 236 -44 35 -88 64
-98 64 -13 0 -25 -16 -41 -52 -57 -135 -160 -279 -255 -357 -52 -43 -173 -111
-197 -111 -7 0 -191 -74 -408 -165 l-394 -165 -581 241 c-319 133 -620 259
-670 280 -485 205 -2815 1172 -2830 1175 -11 1 -1048 -426 -2304 -951z m3074
560 c418 -174 763 -320 768 -324 5 -5 -4266 -1794 -4449 -1862 -29 -11 -78 8
-808 312 -748 311 -777 324 -749 337 107 50 4460 1859 4468 1857 6 -2 352
-146 770 -320z m1386 -577 c269 -112 489 -205 489 -208 0 -12 -4481 -1871
-4497 -1866 -93 30 -994 416 -983 421 8 3 1016 424 2240 935 1224 510 2233
927 2243 925 10 -2 239 -95 508 -207z m3454 -126 c309 -205 566 -325 1643
-768 519 -213 939 -390 935 -395 -4 -4 -1013 -426 -2242 -938 l-2233 -930
-1327 545 c-729 300 -1327 547 -1329 548 -2 2 2007 841 2913 1217 116 48 352
146 525 219 173 72 356 147 407 165 197 71 355 220 467 443 l26 52 63 -49 c34
-27 103 -76 152 -109z m-9369 -1229 l784 -326 0 -607 c0 -517 2 -609 14 -620
12 -9 64 4 257 65 l243 76 308 -308 c265 -265 310 -306 326 -297 16 10 17 54
22 606 l5 595 880 -366 880 -366 3 -2253 c2 -1799 0 -2252 -10 -2251 -7 0
-1023 422 -2258 937 l-2245 937 -3 2253 c-1 1238 1 2252 4 2252 3 0 359 -147
790 -327z m1880 -786 c2 -2 3 -252 2 -555 l-3 -552 -270 271 c-148 148 -277
274 -285 278 -9 5 -95 -17 -230 -60 -118 -38 -221 -69 -227 -69 -10 0 -13 118
-13 559 l0 559 511 -213 c281 -118 513 -215 515 -218z"/>
<path d="M11646 6404 l-2289 -954 -1372 565 c-755 311 -1378 565 -1384 565
-19 0 -31 -36 -18 -53 16 -20 2765 -1150 2786 -1144 61 16 4594 1914 4599
1925 6 16 -8 44 -24 48 -5 1 -1039 -427 -2298 -952z"/>
<path d="M11646 5945 l-2289 -954 -1361 561 c-748 309 -1371 563 -1383 566
-29 6 -49 -30 -29 -51 12 -12 2724 -1133 2766 -1144 8 -2 1050 428 2315 955
2047 854 2300 961 2303 982 3 19 -11 40 -28 40 -3 -1 -1035 -430 -2294 -955z"/>
<path d="M11650 5729 c-1477 -616 -2284 -948 -2300 -946 -14 2 -633 254 -1377
560 -743 307 -1358 557 -1366 557 -20 0 -39 -24 -32 -42 3 -8 624 -269 1394
-586 l1388 -572 2229 929 c1226 511 2264 943 2307 961 72 30 78 34 75 59 -2
17 -9 27 -23 28 -11 1 -1044 -425 -2295 -948z"/>
<path d="M11650 5489 c-1251 -522 -2283 -949 -2292 -949 -10 0 -629 252 -1377
560 -748 308 -1367 560 -1374 560 -20 0 -38 -25 -31 -43 3 -9 568 -247 1395
-587 1383 -569 1390 -572 1422 -557 18 8 1042 436 2277 950 1235 514 2258 941
2273 948 22 10 27 18 25 38 -2 18 -10 27 -23 28 -11 1 -1044 -425 -2295 -948z"/>
<path d="M11670 5280 c-1240 -517 -2269 -945 -2285 -951 -29 -11 -127 28
-1385 547 -745 306 -1369 559 -1386 562 -36 5 -54 -22 -31 -46 8 -7 635 -269
1394 -582 l1380 -568 2289 953 c1259 525 2297 959 2307 965 24 15 19 54 -8 57
-11 2 -1035 -420 -2275 -937z"/>
<path d="M11660 5035 c-1246 -520 -2275 -948 -2287 -951 -16 -4 -422 158
-1386 555 -749 309 -1369 561 -1378 561 -9 0 -22 -7 -29 -16 -11 -12 -10 -18
6 -33 10 -10 624 -267 1364 -571 740 -304 1358 -559 1373 -567 28 -14 94 13
2325 942 1263 527 2303 962 2310 968 19 15 10 52 -13 54 -11 1 -1039 -423
-2285 -942z"/>
<path d="M11700 4835 c-1218 -509 -2244 -936 -2280 -951 l-65 -25 -1373 565
c-755 311 -1379 563 -1387 560 -20 -8 -25 -30 -12 -48 7 -8 634 -271 1393
-584 l1381 -568 2298 957 c1263 527 2302 962 2307 967 18 18 4 47 -22 49 -14
1 -996 -403 -2240 -922z"/>
<path d="M11655 4574 c-1243 -519 -2269 -946 -2281 -949 -14 -5 -448 169
-1380 553 -747 307 -1367 562 -1376 565 -17 6 -48 -16 -48 -33 0 -5 10 -16 23
-24 12 -8 640 -269 1396 -580 1068 -439 1378 -563 1392 -555 10 5 1034 432
2276 950 1242 517 2269 946 2283 952 17 8 25 20 25 37 0 20 -5 25 -25 27 -14
1 -1042 -423 -2285 -943z"/>
<path d="M11646 4354 l-2288 -955 -1374 566 c-756 311 -1378 565 -1383 565
-19 0 -31 -36 -18 -53 16 -21 2764 -1150 2785 -1145 63 17 4595 1915 4600
1926 6 16 -8 44 -24 48 -5 1 -1039 -427 -2298 -952z"/>
<path d="M11636 4109 l-2279 -951 -1373 566 c-755 311 -1380 563 -1388 560
-21 -8 -27 -30 -13 -48 11 -14 2714 -1133 2763 -1143 12 -3 923 371 2304 947
1257 523 2293 956 2303 961 27 15 18 53 -13 56 -14 1 -1004 -406 -2304 -948z"/>
<path d="M11646 3895 l-2288 -954 -1362 561 c-748 308 -1371 563 -1383 565
-28 6 -48 -27 -30 -49 10 -12 2718 -1133 2766 -1144 9 -3 1051 427 2316 954
2047 854 2300 961 2303 982 3 19 -12 40 -28 39 -3 0 -1035 -429 -2294 -954z"/>
<path d="M11646 3655 l-2289 -955 -1371 565 c-755 311 -1378 565 -1384 565
-20 0 -33 -35 -19 -52 11 -14 2714 -1134 2762 -1144 12 -3 955 385 2320 954
2068 861 2300 960 2303 981 3 20 -12 42 -28 40 -3 0 -1035 -430 -2294 -954z"/>
<path d="M11650 3439 c-1251 -522 -2283 -949 -2292 -949 -10 0 -630 252 -1378
560 -749 308 -1367 560 -1374 560 -20 0 -37 -25 -31 -43 4 -9 576 -249 1396
-587 l1390 -572 57 25 c31 14 1056 442 2277 950 1221 509 2233 931 2248 938
22 10 27 18 25 38 -2 18 -10 27 -23 28 -11 1 -1044 -426 -2295 -948z"/>
<path d="M11650 3199 c-1467 -612 -2284 -948 -2300 -946 -14 2 -634 254 -1378
561 -744 306 -1360 556 -1369 554 -27 -5 -40 -35 -23 -52 24 -22 2770 -1148
2788 -1143 60 16 4589 1911 4599 1924 15 20 0 53 -25 52 -9 0 -1041 -428
-2292 -950z"/>
<path d="M11646 2955 l-2289 -954 -1361 561 c-748 308 -1371 563 -1383 565
-28 6 -48 -27 -30 -49 10 -12 2718 -1133 2766 -1144 9 -3 1051 427 2316 954
2051 855 2300 961 2303 982 3 19 -12 40 -28 39 -3 0 -1035 -429 -2294 -954z"/>
<path d="M11650 2739 c-1462 -610 -2284 -948 -2300 -946 -14 2 -633 254 -1376
560 -744 306 -1359 557 -1367 557 -20 0 -39 -24 -32 -42 4 -9 590 -256 1395
-587 l1388 -571 2293 956 c1262 526 2300 958 2307 961 21 9 10 58 -13 60 -11
1 -1044 -425 -2295 -948z"/>
<path d="M11641 2495 l-2284 -953 -36 15 c-445 187 -2706 1113 -2715 1113 -20
0 -37 -25 -31 -43 4 -9 575 -249 1395 -587 l1390 -572 107 46 c60 25 1096 458
2303 960 2183 910 2195 915 2195 943 0 21 -5 28 -20 30 -11 1 -1048 -427
-2304 -952z"/>
<path d="M11645 2279 c-1341 -559 -2288 -949 -2300 -946 -11 2 -627 255 -1369
561 -742 306 -1359 556 -1372 556 -27 0 -40 -29 -20 -48 8 -8 636 -270 1394
-583 l1380 -567 2279 948 c1253 522 2289 955 2303 962 32 17 35 62 5 65 -11 2
-1046 -425 -2300 -948z"/>
<path d="M11660 2044 c-1246 -519 -2276 -947 -2290 -950 -18 -4 -404 151
-1375 552 -742 306 -1362 559 -1376 561 -28 5 -53 -16 -44 -39 3 -7 551 -238
1218 -513 666 -274 1291 -532 1387 -572 l175 -73 2308 961 c2273 947 2308 962
2305 988 -2 17 -10 27 -23 28 -11 1 -1039 -423 -2285 -943z"/>
<path d="M11640 1819 c-1251 -522 -2278 -949 -2282 -949 -4 0 -624 254 -1378
564 -754 311 -1377 563 -1385 560 -20 -8 -27 -36 -13 -51 7 -7 635 -268 1395
-581 l1381 -569 2299 958 c1264 527 2302 964 2307 972 14 22 -1 47 -26 46 -13
0 -1047 -428 -2298 -950z"/>
</g>
</svg>
