<?xml version="1.0" standalone="no"?>
<!DOCTYPE svg PUBLIC "-//W3C//DTD SVG 20010904//EN"
 "http://www.w3.org/TR/2001/REC-SVG-20010904/DTD/svg10.dtd">
<svg version="1.0" xmlns="http://www.w3.org/2000/svg"
 width="959.000000pt" height="1146.000000pt" viewBox="0 0 959.000000 1146.000000"
 preserveAspectRatio="xMidYMid meet">

<g transform="translate(0.000000,1146.000000) scale(0.100000,-0.100000)"
fill="#000000" stroke="none">
<path d="M2413 10885 c-12 -9 -14 -97 -13 -542 l0 -532 -535 -803 -535 -803 0
-3726 c0 -3124 2 -3728 14 -3738 19 -16 6943 -16 6962 0 12 10 14 597 14 3738
l0 3726 -535 803 -535 803 0 531 c1 292 -3 535 -8 540 -12 12 -4812 15 -4829
3z m4765 -562 l-3 -488 -2347 -3 -2348 -2 0 490 0 490 2350 0 2350 0 -2 -487z
m-540 -1328 l-503 -754 -2343 -1 -2343 0 18 28 c11 15 237 354 503 755 l483
727 2344 0 2343 0 -502 -755z m1076 -20 l486 -730 -35 -3 c-34 -3 -35 -5 -35
-43 l0 -39 55 0 55 0 -2 -3677 -3 -3678 -1020 0 -1020 0 -3 3678 -2 3677 55 0
55 0 0 39 c0 38 -1 40 -35 43 l-35 3 492 738 c270 405 495 734 499 730 3 -5
225 -336 493 -738z m-1604 -1570 l0 -755 -2350 0 -2350 0 0 755 0 755 2350 0
2350 0 0 -755z m0 -1595 l0 -760 -2345 0 -2345 0 0 760 0 760 2345 0 2345 0 0
-760z m0 -2925 l0 -2085 -2347 2 -2348 3 -3 2083 -2 2082 2350 0 2350 0 0
-2085z"/>
<path d="M6370 8200 l0 -40 75 0 75 0 0 40 0 40 -75 0 -75 0 0 -40z"/>
<path d="M6590 8200 l0 -40 75 0 75 0 0 40 0 40 -75 0 -75 0 0 -40z"/>
<path d="M6810 8200 l0 -40 75 0 75 0 0 40 0 40 -75 0 -75 0 0 -40z"/>
<path d="M7030 8200 l0 -40 75 0 75 0 0 40 0 40 -75 0 -75 0 0 -40z"/>
<path d="M7250 8200 l0 -40 75 0 75 0 0 40 0 40 -75 0 -75 0 0 -40z"/>
<path d="M7470 8200 l0 -40 75 0 75 0 0 40 0 40 -75 0 -75 0 0 -40z"/>
<path d="M7690 8200 l0 -40 75 0 75 0 0 40 0 40 -75 0 -75 0 0 -40z"/>
<path d="M7910 8200 l0 -40 75 0 75 0 0 40 0 40 -75 0 -75 0 0 -40z"/>
</g>
</svg>
