<?xml version="1.0" standalone="no"?>
<!DOCTYPE svg PUBLIC "-//W3C//DTD SVG 20010904//EN"
 "http://www.w3.org/TR/2001/REC-SVG-20010904/DTD/svg10.dtd">
<svg version="1.0" xmlns="http://www.w3.org/2000/svg"
 width="1178.000000pt" height="1273.000000pt" viewBox="0 0 1178.000000 1273.000000"
 preserveAspectRatio="xMidYMid meet">

<g transform="translate(0.000000,1273.000000) scale(0.100000,-0.100000)"
fill="#000000" stroke="none">
<path d="M5100 11700 c-12 -8 -16 -51 -20 -252 l-5 -243 -79 -5 c-82 -5 -106
-19 -93 -54 5 -13 22 -16 92 -16 l85 0 0 -69 0 -69 -67 -7 c-97 -9 -95 -8
-106 -27 -8 -12 -7 -21 3 -33 12 -15 27 -17 92 -12 l78 5 0 -78 0 -78 -67 -7
c-38 -3 -77 -7 -88 -8 -24 -2 -32 -32 -14 -54 11 -13 28 -15 91 -10 l78 5 0
-59 0 -59 -159 0 c-132 0 -162 -3 -175 -16 -23 -22 -20 -71 3 -84 11 -6 87
-10 175 -10 l156 0 0 -102 0 -103 -710 -710 -711 -711 0 -644 0 -644 81 -81
c44 -44 80 -84 80 -89 0 -5 -36 -46 -81 -91 l-80 -82 0 -544 0 -543 83 -83 82
-83 -34 -37 c-19 -21 -56 -61 -83 -89 l-48 -50 0 -544 0 -544 83 -83 82 -83
-49 -52 c-28 -29 -65 -69 -83 -89 l-33 -36 0 -538 0 -539 81 -81 c44 -44 80
-84 80 -89 0 -5 -36 -45 -80 -91 l-81 -82 0 -569 c1 -613 0 -609 55 -743 78
-194 301 -432 590 -635 l108 -76 1438 0 1438 0 112 75 c157 105 273 200 372
304 137 144 209 265 248 416 19 74 20 111 20 659 l0 581 -80 80 c-44 44 -80
83 -80 87 0 5 36 46 80 92 l80 83 0 539 0 539 -85 85 -84 84 84 92 85 92 0
539 0 538 -84 84 -85 84 85 91 84 90 0 541 0 540 -80 80 c-44 44 -80 83 -80
87 0 5 36 46 80 92 l80 83 0 634 0 635 -710 709 -710 710 0 107 0 108 158 0
c141 0 161 2 175 18 23 26 21 58 -5 76 -18 13 -53 16 -175 16 l-153 0 0 95 0
95 71 0 c78 0 109 11 109 40 0 29 -18 34 -102 31 l-78 -2 0 80 0 81 71 0 c78
0 109 11 109 40 0 29 -18 34 -102 31 l-78 -2 0 75 0 76 79 0 c85 0 108 12 96
50 -6 18 -14 20 -91 20 l-84 0 0 193 c0 158 -3 197 -16 215 l-15 22 -737 0
c-446 0 -743 -4 -752 -10z m1410 -260 c0 -170 0 -170 -22 -170 -39 0 -1087
-49 -1195 -56 l-103 -6 0 201 0 201 660 0 660 0 0 -170z m0 -315 l0 -75 -46 0
c-58 0 -1105 -47 -1201 -54 l-73 -6 0 75 0 75 33 1 c17 0 289 13 602 28 314
16 596 29 628 30 l57 1 0 -75z m0 -225 l0 -80 -47 0 c-51 0 -1083 -46 -1200
-54 l-73 -4 0 79 c0 43 3 79 8 80 44 4 1168 57 1230 58 l82 1 0 -80z m0 -240
l0 -90 -660 0 -660 0 0 60 c0 33 3 60 8 61 35 3 1166 57 1230 58 l82 1 0 -90z
m0 -328 l0 -127 715 -715 715 -715 0 -583 0 -583 -66 -72 c-37 -40 -79 -84
-95 -99 l-29 -28 -1902 0 -1903 0 -92 92 -93 93 0 595 0 595 715 715 715 715
0 122 0 123 660 0 660 0 0 -128z m1342 -3080 l88 -88 0 -492 0 -491 -91 -96
-91 -95 -1911 0 -1912 0 -87 87 -88 88 0 493 0 494 88 94 87 94 1914 0 1915 0
88 -88z m-5 -1424 l93 -93 0 -490 0 -490 -91 -97 -91 -98 -1910 0 -1910 0 -89
88 -89 88 0 494 1 495 90 98 91 97 1906 0 1907 0 92 -92z m0 -1430 l93 -93 0
-488 0 -488 -66 -72 c-37 -40 -79 -84 -95 -99 l-29 -28 -1902 0 -1903 0 -92
92 -93 93 0 491 0 492 91 96 91 96 1906 0 1907 0 92 -92z m6 -1427 l88 -89 -4
-558 c-4 -603 -3 -594 -60 -717 -79 -174 -262 -361 -519 -532 l-96 -65 -330 0
-329 0 -27 40 c-14 22 -29 40 -33 40 -17 0 -74 -54 -69 -66 5 -12 -91 -14
-635 -14 -627 0 -640 0 -634 19 4 14 -4 26 -30 46 -41 32 -57 25 -75 -31 l-12
-34 -325 0 -325 0 -81 57 c-258 182 -459 395 -539 571 -55 122 -58 149 -58
714 l0 518 88 95 87 95 1914 0 1915 0 89 -89z"/>
<path d="M5735 1655 c-28 -13 -68 -42 -88 -63 l-38 -39 36 -32 37 -32 34 30
c19 17 48 38 64 46 32 17 35 31 17 83 l-12 32 -50 -25z"/>
<path d="M5897 1632 l-13 -47 30 -17 c17 -9 47 -30 66 -46 l35 -30 38 30 38
31 -23 24 c-29 31 -98 80 -132 93 -24 9 -26 7 -39 -38z"/>
<path d="M5495 1391 c-40 -69 -50 -80 -90 -96 -25 -9 -45 -21 -45 -26 0 -5 9
-27 20 -49 l20 -39 52 24 c41 20 52 30 50 46 -1 16 2 19 17 14 15 -4 25 6 51
52 18 32 39 67 47 79 12 20 10 23 -27 48 -22 14 -42 26 -45 26 -2 0 -25 -35
-50 -79z"/>
<path d="M6109 1445 c-19 -14 -34 -29 -34 -33 0 -6 35 -69 72 -130 10 -17 20
-21 35 -16 17 5 19 3 10 -12 -9 -16 -3 -23 36 -46 26 -15 50 -28 54 -28 4 0
18 19 32 42 l25 42 -49 28 c-30 17 -56 41 -66 61 -24 48 -68 117 -75 117 -3 0
-21 -11 -40 -25z"/>
<path d="M5250 1208 c-66 -44 -66 -43 -31 -87 l32 -40 49 36 48 36 -25 41
c-14 23 -26 42 -27 43 -1 1 -21 -12 -46 -29z"/>
<path d="M6365 1188 l-28 -42 44 -37 44 -38 23 22 c13 12 28 31 34 41 11 20 8
23 -63 76 l-27 20 -27 -42z"/>
</g>
</svg>
