<?xml version="1.0" standalone="no"?>
<!DOCTYPE svg PUBLIC "-//W3C//DTD SVG 20010904//EN"
 "http://www.w3.org/TR/2001/REC-SVG-20010904/DTD/svg10.dtd">
<svg version="1.0" xmlns="http://www.w3.org/2000/svg"
 width="403.000000pt" height="286.000000pt" viewBox="0 0 403.000000 286.000000"
 preserveAspectRatio="xMidYMid meet">

<g transform="translate(0.000000,286.000000) scale(0.100000,-0.100000)"
fill="#000000" stroke="none">
<path d="M2013 2369 c-6 -6 -244 -140 -529 -297 l-519 -287 -17 -485 -17 -484
62 -67 c34 -37 70 -70 80 -73 12 -5 75 34 230 145 116 84 217 156 222 160 8 6
10 -77 7 -265 l-4 -273 288 -7 c159 -3 416 -7 572 -7 l283 -1 186 229 c102
125 196 239 208 253 l24 25 7 471 7 471 -487 6 c-268 3 -490 7 -492 10 -3 2
12 77 32 166 l38 162 -70 70 c-79 80 -96 93 -111 78z m87 -94 l64 -64 -33
-148 c-32 -140 -50 -200 -51 -163 0 8 14 76 30 150 35 156 32 140 20 140 -9 0
-987 -594 -1002 -608 -12 -13 -51 -793 -39 -805 7 -7 12 -6 15 4 2 8 12 176
21 374 9 198 20 372 23 387 6 24 68 65 422 282 228 139 416 253 417 252 1 -1
-41 -217 -52 -263 -5 -20 -157 -206 -302 -369 -35 -39 -63 -76 -63 -81 0 -6
-7 -16 -15 -23 -10 -8 -15 -31 -15 -65 l0 -53 -195 -122 c-108 -68 -198 -126
-200 -131 -19 -30 36 -3 191 94 98 62 185 116 192 121 8 5 12 -1 12 -21 0 -25
-23 -45 -200 -176 -182 -135 -218 -167 -190 -167 5 0 80 53 167 118 87 65 173
128 191 140 l32 23 0 -38 0 -39 -217 -155 c-120 -86 -224 -159 -232 -164 -9
-5 -32 12 -72 54 -59 62 -59 63 -59 123 0 119 31 882 36 888 10 10 1019 568
1029 569 6 1 39 -28 75 -64z m-5 -172 c-26 -143 -47 -213 -64 -213 -10 0 -26
-9 -36 -20 -10 -11 -20 -19 -22 -17 -3 3 25 150 42 223 4 20 58 63 79 64 4 0
5 -17 1 -37z m696 -250 l284 -6 -3 -426 c-2 -234 -6 -438 -10 -453 -4 -15 -97
-138 -207 -274 l-200 -247 -254 7 c-140 3 -387 6 -549 6 l-294 0 4 434 4 433
80 94 c44 52 147 172 228 267 l147 172 243 0 c133 0 371 -3 527 -7z"/>
<path d="M1575 1929 c-270 -160 -494 -294 -499 -299 -8 -8 -56 -799 -48 -813
15 -31 25 54 43 399 14 251 25 393 33 400 6 6 222 136 481 289 259 152 476
283 483 290 8 7 10 15 5 18 -5 3 -229 -125 -498 -284z"/>
<path d="M1860 1584 c-113 -136 -206 -253 -208 -259 -3 -13 381 -25 765 -25
l193 0 161 242 c89 133 164 250 167 260 4 17 -14 18 -339 18 -189 0 -387 3
-439 5 l-95 6 -205 -247z m752 206 l297 0 -47 -63 c-26 -34 -96 -138 -157
-230 l-110 -167 -252 0 -253 0 0 237 0 236 113 -6 c61 -4 246 -7 409 -7z
m-552 -240 l0 -220 -174 0 c-101 0 -177 4 -181 10 -5 8 340 430 351 430 2 0 4
-99 4 -220z"/>
<path d="M2955 1727 c-22 -35 -105 -159 -185 -276 l-145 -213 -507 5 c-435 5
-508 3 -508 -9 0 -12 31 -14 183 -14 101 0 332 -3 513 -6 l329 -6 187 274
c103 151 190 282 194 291 4 11 1 17 -7 17 -8 0 -32 -29 -54 -63z"/>
<path d="M2647 1044 c-10 -11 -8 -534 2 -534 5 0 12 117 16 261 7 242 3 294
-18 273z"/>
</g>
</svg>
