<?xml version="1.0" standalone="no"?>
<!DOCTYPE svg PUBLIC "-//W3C//DTD SVG 20010904//EN"
 "http://www.w3.org/TR/2001/REC-SVG-20010904/DTD/svg10.dtd">
<svg version="1.0" xmlns="http://www.w3.org/2000/svg"
 width="476.000000pt" height="359.000000pt" viewBox="0 0 476.000000 359.000000"
 preserveAspectRatio="xMidYMid meet">

<g transform="translate(0.000000,359.000000) scale(0.100000,-0.100000)"
fill="#000000" stroke="none">
<path d="M2405 3268 c-2 -7 -5 -39 -8 -70 -2 -32 -6 -61 -10 -64 -3 -3 -57
-11 -121 -18 -63 -6 -118 -14 -121 -18 -4 -4 10 -29 32 -55 56 -68 59 -75 31
-69 -12 3 -51 8 -85 11 -76 7 -84 -8 -25 -52 22 -15 65 -52 97 -81 l57 -53
-73 -77 c-129 -135 -164 -237 -164 -477 0 -158 10 -192 86 -292 21 -29 39 -54
39 -57 0 -3 -9 -10 -20 -16 -18 -9 -27 -6 -56 19 -19 17 -47 37 -63 45 -26 14
-28 20 -34 92 -5 56 -14 89 -32 120 -32 55 -56 68 -113 61 -37 -4 -52 -12 -73
-38 -30 -36 -49 -103 -49 -169 0 -37 -2 -39 -36 -46 -48 -9 -249 3 -341 21
-139 27 -203 68 -203 133 0 43 -34 107 -71 134 -17 13 -43 20 -73 20 -41 1
-52 -3 -87 -38 -55 -54 -70 -109 -68 -254 1 -63 2 -133 2 -155 0 -26 -16 -77
-48 -150 -75 -174 -93 -233 -101 -330 -7 -102 -1 -132 53 -260 65 -156 191
-260 366 -300 77 -17 347 -40 483 -40 97 0 104 2 153 33 l52 32 54 -55 c65
-67 148 -108 260 -130 44 -9 127 -28 185 -43 99 -25 118 -27 325 -27 203 1
235 3 415 34 286 49 429 105 576 224 74 61 102 93 183 207 18 25 38 45 44 45
30 0 114 202 136 326 21 118 34 386 22 445 -13 68 -49 118 -95 135 l-33 12 -5
96 c-6 106 -25 165 -86 266 -68 115 -170 250 -238 319 -91 91 -245 192 -339
222 -90 28 -229 48 -306 42 l-58 -4 6 25 c5 23 4 24 -9 13 -14 -11 -18 -3 -33
65 -9 43 -21 83 -25 88 -4 6 -13 28 -19 50 -20 66 -43 115 -55 115 -6 0 -33
-18 -60 -40 -26 -22 -52 -40 -57 -40 -5 0 -41 18 -80 40 -80 45 -78 45 -84 28z
m293 -45 c28 -77 53 -156 70 -225 l20 -77 -22 -20 c-47 -44 -263 -126 -241
-92 8 14 -90 221 -105 221 -16 0 -20 -18 -6 -29 15 -12 71 -132 81 -173 6 -23
3 -27 -25 -33 -49 -11 -180 4 -187 21 -3 8 -9 12 -13 9 -4 -2 -42 27 -85 66
l-78 71 82 -7 c44 -4 81 -3 81 2 0 4 -20 33 -45 63 -24 30 -41 57 -37 61 4 3
53 11 109 17 56 6 107 13 113 17 5 3 10 30 10 60 0 30 5 57 10 60 6 4 40 -10
76 -30 71 -40 63 -41 132 17 41 35 47 35 60 1z m400 -338 c103 -21 144 -40
252 -110 117 -77 231 -194 323 -333 128 -191 167 -298 153 -423 -7 -55 -6 -59
14 -59 12 0 34 -7 49 -14 68 -36 86 -117 71 -321 -6 -77 -15 -171 -21 -210
-13 -87 -56 -222 -78 -244 -9 -9 -52 -68 -96 -130 -189 -271 -353 -364 -761
-433 -169 -28 -211 -32 -399 -32 -198 -1 -216 1 -315 27 -58 15 -141 34 -184
42 -108 20 -195 63 -257 126 -28 28 -48 57 -45 64 2 7 -4 19 -14 27 -26 23
-44 135 -36 227 11 131 89 383 149 477 13 22 31 55 41 74 9 19 33 54 54 77 20
23 48 57 62 76 14 19 41 46 60 58 34 23 50 38 50 50 0 3 -16 23 -35 45 -20 21
-50 68 -68 104 -31 62 -32 69 -32 190 0 146 23 270 63 344 31 57 126 165 156
175 28 11 150 -23 154 -42 2 -9 -6 -33 -17 -55 -19 -36 -19 -52 -1 -52 4 0 18
27 30 60 25 66 48 78 68 35 13 -29 36 -34 27 -6 -5 16 1 20 34 26 65 11 153
59 217 118 33 30 71 57 84 60 37 8 165 -2 248 -18z m-389 -62 c-8 -9 -41 -29
-74 -45 -51 -24 -71 -28 -140 -27 -103 2 -168 16 -80 18 91 2 179 19 238 45
63 29 74 31 56 9z m-1691 -738 c2 -90 -2 -100 -41 -110 -24 -6 -29 -3 -42 29
-19 46 -19 76 1 126 15 37 20 41 48 38 l31 -3 3 -80z m847 -34 c0 -53 -4 -74
-15 -81 -19 -12 -21 -12 -45 6 -28 21 -28 123 -1 153 17 19 22 20 40 7 18 -12
21 -24 21 -85z m-975 -578 c6 -23 22 -55 35 -71 13 -16 22 -32 18 -36 -16 -15
-74 104 -72 148 1 24 4 18 19 -41z m30 -151 c-7 -3 -19 3 -28 13 -16 15 -15
16 12 4 15 -7 23 -15 16 -17z"/>
<path d="M2340 2901 c0 -6 5 -13 10 -16 6 -4 20 -25 31 -47 13 -25 24 -37 30
-31 12 12 -38 103 -57 103 -8 0 -14 -4 -14 -9z"/>
<path d="M3690 1858 c-46 -52 -104 -88 -140 -88 -23 0 -27 -18 -6 -26 34 -13
206 115 206 153 0 22 -13 13 -60 -39z"/>
<path d="M3667 1687 c-3 -8 -26 -20 -51 -27 -56 -15 -62 -35 -9 -27 38 7 84
34 91 55 5 17 -25 15 -31 -1z"/>
</g>
</svg>
